<?xml version="1.0" encoding="UTF-8" standalone="no"?>
<!DOCTYPE svg PUBLIC "-//W3C//DTD SVG 1.1//EN"
 "http://www.w3.org/Graphics/SVG/1.1/DTD/svg11.dtd">
<!-- Generated by graphviz version 8.0.5 (20230430.1635)
 -->
<!-- Pages: 1 -->
<svg width="474pt" height="337pt"
 viewBox="0.00 0.00 473.96 337.38" xmlns="http://www.w3.org/2000/svg" xmlns:xlink="http://www.w3.org/1999/xlink">
<g id="graph0" class="graph" transform="scale(1 1) rotate(0) translate(4 333.38)">
<polygon fill="white" stroke="none" points="-4,4 -4,-333.38 469.96,-333.38 469.96,4 -4,4"/>
<!-- E -->
<g id="node1" class="node">
<title>E</title>
<polygon fill="lightgray" stroke="black" points="207.72,-263.27 186.47,-263.27 186.47,-244.77 207.72,-244.77 207.72,-263.27"/>
<text text-anchor="middle" x="197.09" y="-250.72" font-family="Times,serif" font-size="9.00">E</text>
</g>
<!-- 35 -->
<g id="node11" class="node">
<title>35</title>
<ellipse fill="white" stroke="black" cx="168.09" cy="-179.48" rx="17.68" ry="17.68"/>
<text text-anchor="middle" x="168.09" y="-176.18" font-family="Times,serif" font-size="9.00">35</text>
</g>
<!-- E&#45;&gt;35 -->
<g id="edge1" class="edge">
<title>E&#45;&gt;35</title>
<path fill="none" stroke="red" stroke-width="0.18" d="M193.65,-244.41C189.82,-234.84 183.47,-218.93 178.05,-205.38"/>
<polygon fill="red" stroke="red" stroke-width="0.18" points="181.45,-204.47 174.49,-196.48 174.95,-207.07 181.45,-204.47"/>
</g>
<!-- 36 -->
<g id="node12" class="node">
<title>36</title>
<ellipse fill="white" stroke="black" cx="221.09" cy="-179.48" rx="17.68" ry="17.68"/>
<text text-anchor="middle" x="221.09" y="-176.18" font-family="Times,serif" font-size="9.00">36</text>
</g>
<!-- E&#45;&gt;36 -->
<g id="edge2" class="edge">
<title>E&#45;&gt;36</title>
<path fill="none" stroke="green" stroke-width="0.65" stroke-dasharray="1,5" d="M199.94,-244.41C203.06,-234.99 208.2,-219.44 212.64,-206.03"/>
<polygon fill="green" stroke="green" stroke-width="0.65" points="215.89,-207.36 215.7,-196.76 209.24,-205.16 215.89,-207.36"/>
</g>
<!-- 38 -->
<g id="node14" class="node">
<title>38</title>
<ellipse fill="white" stroke="black" cx="327.09" cy="-179.48" rx="17.68" ry="17.68"/>
<text text-anchor="middle" x="327.09" y="-176.18" font-family="Times,serif" font-size="9.00">38</text>
</g>
<!-- E&#45;&gt;38 -->
<g id="edge3" class="edge">
<title>E&#45;&gt;38</title>
<path fill="none" stroke="red" stroke-width="0.26" d="M204.27,-244.54C207.84,-240.71 212.39,-236.33 217.09,-233.16 250.77,-210.45 265.21,-216.19 301.09,-197.16 302.19,-196.58 303.29,-195.97 304.4,-195.34"/>
<polygon fill="red" stroke="red" stroke-width="0.26" points="306.03,-198.44 312.77,-190.27 302.4,-192.45 306.03,-198.44"/>
</g>
<!-- 41 -->
<g id="node16" class="node">
<title>41</title>
<ellipse fill="white" stroke="black" cx="274.09" cy="-179.48" rx="17.68" ry="17.68"/>
<text text-anchor="middle" x="274.09" y="-176.18" font-family="Times,serif" font-size="9.00">41</text>
</g>
<!-- E&#45;&gt;41 -->
<g id="edge4" class="edge">
<title>E&#45;&gt;41</title>
<path fill="none" stroke="green" stroke-width="0.46" d="M205.59,-244.45C209.12,-240.92 213.28,-236.81 217.09,-233.16 229.27,-221.49 243.16,-208.65 254.18,-198.56"/>
<polygon fill="green" stroke="green" stroke-width="0.46" points="256.27,-201.39 261.29,-192.07 251.55,-196.22 256.27,-201.39"/>
</g>
<!-- F1 -->
<g id="node2" class="node">
<title>F1</title>
<polygon fill="lightgray" stroke="black" points="421.97,-263.27 396.22,-263.27 396.22,-244.77 421.97,-244.77 421.97,-263.27"/>
<text text-anchor="middle" x="409.09" y="-250.72" font-family="Times,serif" font-size="9.00">F1</text>
</g>
<!-- FW -->
<g id="node8" class="node">
<title>FW</title>
<ellipse fill="lightblue" stroke="black" cx="277.09" cy="-20.86" rx="20.86" ry="20.86"/>
<text text-anchor="middle" x="277.09" y="-17.56" font-family="Times,serif" font-size="9.00">FW</text>
</g>
<!-- F1&#45;&gt;FW -->
<g id="edge51" class="edge">
<title>F1&#45;&gt;FW</title>
<path fill="none" stroke="red" stroke-width="0.22" d="M410.95,-244.6C416.47,-217.26 430.03,-129.65 390.09,-77.72 369.63,-51.11 333.11,-36.33 307.13,-28.76"/>
<polygon fill="red" stroke="red" stroke-width="0.22" points="308.32,-25.46 297.75,-26.2 306.47,-32.21 308.32,-25.46"/>
</g>
<!-- F1&#45;&gt;35 -->
<g id="edge5" class="edge">
<title>F1&#45;&gt;35</title>
<path fill="none" stroke="green" stroke-width="0.11" d="M401.75,-244.48C397.81,-240.43 392.63,-235.9 387.09,-233.16 308.88,-194.47 275.21,-229.31 194.09,-197.16 192.94,-196.7 191.79,-196.19 190.64,-195.64"/>
<polygon fill="green" stroke="green" stroke-width="0.11" points="192.57,-192.71 182.13,-190.87 189.15,-198.82 192.57,-192.71"/>
</g>
<!-- F1&#45;&gt;36 -->
<g id="edge6" class="edge">
<title>F1&#45;&gt;36</title>
<path fill="none" stroke="green" stroke-width="0.11" d="M401.67,-244.63C397.71,-240.63 392.53,-236.08 387.09,-233.16 330.5,-202.75 305.99,-222.83 247.09,-197.16 245.96,-196.66 244.82,-196.12 243.68,-195.55"/>
<polygon fill="green" stroke="green" stroke-width="0.11" points="245.63,-192.63 235.21,-190.69 242.14,-198.7 245.63,-192.63"/>
</g>
<!-- F1&#45;&gt;38 -->
<g id="edge7" class="edge">
<title>F1&#45;&gt;38</title>
<path fill="none" stroke="green" stroke-width="0.55" d="M399.7,-244.48C395.81,-240.96 391.24,-236.85 387.09,-233.16 373.97,-221.48 359.13,-208.45 347.5,-198.27"/>
<polygon fill="green" stroke="green" stroke-width="0.55" points="349.85,-195.68 340.01,-191.73 345.24,-200.95 349.85,-195.68"/>
</g>
<!-- 39 -->
<g id="node15" class="node">
<title>39</title>
<ellipse fill="white" stroke="black" cx="380.09" cy="-179.48" rx="17.68" ry="17.68"/>
<text text-anchor="middle" x="380.09" y="-176.18" font-family="Times,serif" font-size="9.00">39</text>
</g>
<!-- F1&#45;&gt;39 -->
<g id="edge8" class="edge">
<title>F1&#45;&gt;39</title>
<path fill="none" stroke="red" stroke-width="0.89" d="M405.65,-244.41C401.93,-235.11 395.83,-219.84 390.52,-206.56"/>
<polygon fill="red" stroke="red" stroke-width="0.89" points="393.45,-205.47 386.49,-197.48 386.95,-208.07 393.45,-205.47"/>
</g>
<!-- F1&#45;&gt;41 -->
<g id="edge9" class="edge">
<title>F1&#45;&gt;41</title>
<path fill="none" stroke="green" stroke-width="0.25" stroke-dasharray="1,5" d="M401.08,-244.56C397.13,-240.72 392.14,-236.35 387.09,-233.16 351.71,-210.81 337.18,-216.53 300.09,-197.16 299,-196.59 297.89,-195.98 296.77,-195.35"/>
<polygon fill="green" stroke="green" stroke-width="0.25" points="298.77,-192.47 288.4,-190.3 295.15,-198.46 298.77,-192.47"/>
</g>
<!-- F2 -->
<g id="node3" class="node">
<title>F2</title>
<polygon fill="lightgray" stroke="black" points="251.97,-263.27 226.22,-263.27 226.22,-244.77 251.97,-244.77 251.97,-263.27"/>
<text text-anchor="middle" x="239.09" y="-250.72" font-family="Times,serif" font-size="9.00">F2</text>
</g>
<!-- F2&#45;&gt;35 -->
<g id="edge10" class="edge">
<title>F2&#45;&gt;35</title>
<path fill="none" stroke="red" stroke-width="0.18" d="M230.67,-244.41C219.97,-233.48 201.2,-214.3 187,-199.79"/>
<polygon fill="red" stroke="red" stroke-width="0.18" points="189.55,-197.4 180.05,-192.7 184.55,-202.29 189.55,-197.4"/>
</g>
<!-- F2&#45;&gt;36 -->
<g id="edge11" class="edge">
<title>F2&#45;&gt;36</title>
<path fill="none" stroke="red" stroke-width="0.15" d="M236.96,-244.41C234.66,-235.14 230.88,-219.93 227.59,-206.68"/>
<polygon fill="red" stroke="red" stroke-width="0.15" points="231.01,-205.91 225.2,-197.05 224.22,-207.6 231.01,-205.91"/>
</g>
<!-- F2&#45;&gt;38 -->
<g id="edge12" class="edge">
<title>F2&#45;&gt;38</title>
<path fill="none" stroke="red" stroke-width="0.38" d="M249.53,-244.41C263.43,-232.96 288.33,-212.44 306.16,-197.73"/>
<polygon fill="red" stroke="red" stroke-width="0.38" points="308.31,-200.5 313.8,-191.44 303.86,-195.1 308.31,-200.5"/>
</g>
<!-- F2&#45;&gt;39 -->
<g id="edge13" class="edge">
<title>F2&#45;&gt;39</title>
<path fill="none" stroke="green" stroke-width="0.1" d="M252.46,-247.15C274.17,-237.47 318.28,-217.25 354.09,-197.16 355.17,-196.55 356.27,-195.92 357.37,-195.27"/>
<polygon fill="green" stroke="green" stroke-width="0.1" points="359.02,-198.36 365.7,-190.14 355.35,-192.4 359.02,-198.36"/>
</g>
<!-- F2&#45;&gt;41 -->
<g id="edge14" class="edge">
<title>F2&#45;&gt;41</title>
<path fill="none" stroke="red" stroke-width="0.32" d="M243.25,-244.41C247.92,-234.72 255.74,-218.52 262.33,-204.86"/>
<polygon fill="red" stroke="red" stroke-width="0.32" points="265.45,-206.45 266.64,-195.92 259.14,-203.41 265.45,-206.45"/>
</g>
<!-- F3 -->
<g id="node4" class="node">
<title>F3</title>
<polygon fill="lightgray" stroke="black" points="111.97,-263.27 86.22,-263.27 86.22,-244.77 111.97,-244.77 111.97,-263.27"/>
<text text-anchor="middle" x="99.09" y="-250.72" font-family="Times,serif" font-size="9.00">F3</text>
</g>
<!-- F3&#45;&gt;35 -->
<g id="edge15" class="edge">
<title>F3&#45;&gt;35</title>
<path fill="none" stroke="green" stroke-width="0.19" d="M107.28,-244.41C117.61,-233.55 135.71,-214.53 149.48,-200.05"/>
<polygon fill="green" stroke="green" stroke-width="0.19" points="151.87,-202.62 156.22,-192.96 146.8,-197.79 151.87,-202.62"/>
</g>
<!-- F3&#45;&gt;36 -->
<g id="edge16" class="edge">
<title>F3&#45;&gt;36</title>
<path fill="none" stroke="green" stroke-width="0.18" d="M110.12,-244.31C114.91,-240.69 120.66,-236.54 126.09,-233.16 155.44,-214.86 165.17,-214.51 195.09,-197.16 196.16,-196.54 197.25,-195.89 198.35,-195.23"/>
<polygon fill="green" stroke="green" stroke-width="0.18" points="200.02,-198.32 206.66,-190.06 196.32,-192.37 200.02,-198.32"/>
</g>
<!-- F3&#45;&gt;41 -->
<g id="edge17" class="edge">
<title>F3&#45;&gt;41</title>
<path fill="none" stroke="red" stroke-width="0.33" d="M112.24,-249.12C138.69,-241.07 199.93,-221.29 248.09,-197.16 249.2,-196.6 250.32,-196.01 251.43,-195.4"/>
<polygon fill="red" stroke="red" stroke-width="0.33" points="253.04,-198.52 259.84,-190.39 249.45,-192.51 253.04,-198.52"/>
</g>
<!-- F4 -->
<g id="node5" class="node">
<title>F4</title>
<polygon fill="lightgray" stroke="black" points="161.97,-329.38 136.22,-329.38 136.22,-310.88 161.97,-310.88 161.97,-329.38"/>
<text text-anchor="middle" x="149.09" y="-316.83" font-family="Times,serif" font-size="9.00">F4</text>
</g>
<!-- F4&#45;&gt;35 -->
<g id="edge18" class="edge">
<title>F4&#45;&gt;35</title>
<path fill="none" stroke="red" stroke-width="0.9" d="M135.84,-319.35C106.24,-319.39 37.45,-315.69 8.09,-274.88 -2.74,-259.83 -2.64,-248.27 8.09,-233.16 37.38,-191.92 101.44,-182.7 139.2,-180.81"/>
<polygon fill="red" stroke="red" stroke-width="0.9" points="139.14,-184.28 149.01,-180.43 138.89,-177.28 139.14,-184.28"/>
</g>
<!-- F4&#45;&gt;35 -->
<g id="edge22" class="edge">
<title>F4&#45;&gt;35</title>
<path fill="none" stroke="green" stroke-width="0.39" stroke-dasharray="1,5" d="M135.89,-319.18C109.51,-318.12 52.21,-311.17 26.09,-274.88 15.26,-259.83 15.36,-248.27 26.09,-233.16 52.46,-196.03 107.04,-184.85 140.47,-181.61"/>
<polygon fill="green" stroke="green" stroke-width="0.39" points="140.43,-185.13 150.12,-180.85 139.87,-178.15 140.43,-185.13"/>
</g>
<!-- F4&#45;&gt;36 -->
<g id="edge19" class="edge">
<title>F4&#45;&gt;36</title>
<path fill="none" stroke="green" stroke-width="0.83" d="M145.52,-310.39C145.14,-294.33 153.58,-259.39 168.09,-233.16 175.74,-219.34 187.27,-205.7 197.85,-195.77"/>
<polygon fill="green" stroke="green" stroke-width="0.83" points="200.79,-197.86 206.05,-188.67 196.2,-192.57 200.79,-197.86"/>
</g>
<!-- F4&#45;&gt;36 -->
<g id="edge23" class="edge">
<title>F4&#45;&gt;36</title>
<path fill="none" stroke="red" stroke-width="0.41" d="M156.05,-310.39C163.14,-294.33 171.58,-259.39 186.09,-233.16 192.01,-222.46 200.25,-211.88 207.43,-203.03"/>
<polygon fill="red" stroke="red" stroke-width="0.41" points="210,-205.41 213.61,-195.45 204.58,-200.98 210,-205.41"/>
</g>
<!-- F4&#45;&gt;38 -->
<g id="edge24" class="edge">
<title>F4&#45;&gt;38</title>
<path fill="none" stroke="red" stroke-width="0.39" stroke-dasharray="1,5" d="M162.15,-319.21C212.86,-319.21 395.66,-316.3 431.09,-274.88 443.14,-260.79 441.09,-248.78 431.09,-233.16 410.52,-201 386.57,-215.51 353.09,-197.16 352.01,-196.56 350.91,-195.94 349.8,-195.3"/>
<polygon fill="red" stroke="red" stroke-width="0.39" points="351.81,-192.42 341.45,-190.19 348.16,-198.4 351.81,-192.42"/>
</g>
<!-- F4&#45;&gt;39 -->
<g id="edge20" class="edge">
<title>F4&#45;&gt;39</title>
<path fill="none" stroke="green" stroke-width="0.37" d="M162.46,-319.38C214.91,-319.83 402.94,-317.92 440.09,-274.88 452.21,-260.84 448.31,-249.78 440.09,-233.16 432.09,-216.98 416.47,-204.41 403.04,-195.61"/>
<polygon fill="green" stroke="green" stroke-width="0.37" points="404.97,-192.69 394.63,-190.38 401.27,-198.63 404.97,-192.69"/>
</g>
<!-- F4&#45;&gt;39 -->
<g id="edge25" class="edge">
<title>F4&#45;&gt;39</title>
<path fill="none" stroke="red" stroke-width="0.55" stroke-dasharray="1,5" d="M162.41,-319.31C216.98,-319.92 419.39,-319.71 458.09,-274.88 470.21,-260.84 466.31,-249.78 458.09,-233.16 447.75,-212.24 424.67,-197.36 406.06,-188.86"/>
<polygon fill="red" stroke="red" stroke-width="0.55" points="407.67,-185.74 397.09,-185.1 404.96,-192.19 407.67,-185.74"/>
</g>
<!-- F4&#45;&gt;41 -->
<g id="edge21" class="edge">
<title>F4&#45;&gt;41</title>
<path fill="none" stroke="green" stroke-width="0.45" d="M162.32,-318.09C186.22,-315.46 236.43,-306.28 261.09,-274.88 276.04,-255.84 278.15,-227.74 277.21,-207.15"/>
<polygon fill="green" stroke="green" stroke-width="0.45" points="280.72,-207.16 276.52,-197.43 273.74,-207.65 280.72,-207.16"/>
</g>
<!-- 914 -->
<g id="node17" class="node">
<title>914</title>
<ellipse fill="white" stroke="black" cx="47.09" cy="-254.02" rx="20.86" ry="20.86"/>
<text text-anchor="middle" x="47.09" y="-250.72" font-family="Times,serif" font-size="9.00">914</text>
</g>
<!-- F4&#45;&gt;914 -->
<g id="edge49" class="edge">
<title>F4&#45;&gt;914</title>
<path fill="none" stroke="green" stroke-width="0.18" d="M135.74,-311.1C121.22,-302.34 97.38,-287.82 77.09,-274.88 75.51,-273.87 73.89,-272.82 72.26,-271.77"/>
<polygon fill="green" stroke="green" stroke-width="0.18" points="74.44,-269.01 64.16,-266.46 70.61,-274.87 74.44,-269.01"/>
</g>
<!-- F5 -->
<g id="node6" class="node">
<title>F5</title>
<polygon fill="lightgray" stroke="black" points="377.97,-263.27 352.22,-263.27 352.22,-244.77 377.97,-244.77 377.97,-263.27"/>
<text text-anchor="middle" x="365.09" y="-250.72" font-family="Times,serif" font-size="9.00">F5</text>
</g>
<!-- F5&#45;&gt;35 -->
<g id="edge26" class="edge">
<title>F5&#45;&gt;35</title>
<path fill="none" stroke="red" stroke-width="0.14" d="M357.69,-244.6C353.73,-240.58 348.55,-236.04 343.09,-233.16 282.84,-201.35 256.74,-223.92 194.09,-197.16 192.96,-196.67 191.81,-196.14 190.67,-195.57"/>
<polygon fill="red" stroke="red" stroke-width="0.14" points="192.61,-192.65 182.19,-190.73 189.14,-198.73 192.61,-192.65"/>
</g>
<!-- F5&#45;&gt;36 -->
<g id="edge27" class="edge">
<title>F5&#45;&gt;36</title>
<path fill="none" stroke="red" stroke-width="0.13" d="M357.13,-244.48C353.19,-240.63 348.19,-236.26 343.09,-233.16 304.16,-209.47 287.83,-217.57 247.09,-197.16 245.99,-196.6 244.87,-196.01 243.75,-195.4"/>
<polygon fill="red" stroke="red" stroke-width="0.13" points="245.73,-192.51 235.35,-190.39 242.15,-198.52 245.73,-192.51"/>
</g>
<!-- F5&#45;&gt;38 -->
<g id="edge28" class="edge">
<title>F5&#45;&gt;38</title>
<path fill="none" stroke="red" stroke-width="0.18" stroke-dasharray="1,5" d="M360.58,-244.41C355.42,-234.56 346.75,-218.01 339.52,-204.21"/>
<polygon fill="red" stroke="red" stroke-width="0.18" points="342.78,-202.88 335.04,-195.64 336.58,-206.12 342.78,-202.88"/>
</g>
<!-- F5&#45;&gt;39 -->
<g id="edge29" class="edge">
<title>F5&#45;&gt;39</title>
<path fill="none" stroke="red" stroke-width="0.16" d="M366.87,-244.41C368.79,-235.14 371.93,-219.93 374.68,-206.68"/>
<polygon fill="red" stroke="red" stroke-width="0.16" points="378.07,-207.55 376.67,-197.05 371.21,-206.13 378.07,-207.55"/>
</g>
<!-- F6 -->
<g id="node7" class="node">
<title>F6</title>
<polygon fill="lightgray" stroke="black" points="333.97,-263.27 308.22,-263.27 308.22,-244.77 333.97,-244.77 333.97,-263.27"/>
<text text-anchor="middle" x="321.09" y="-250.72" font-family="Times,serif" font-size="9.00">F6</text>
</g>
<!-- F6&#45;&gt;35 -->
<g id="edge30" class="edge">
<title>F6&#45;&gt;35</title>
<path fill="none" stroke="red" stroke-width="0.13" d="M307.79,-247.96C284.31,-238.87 234.21,-218.68 194.09,-197.16 193,-196.57 191.9,-195.96 190.79,-195.32"/>
<polygon fill="red" stroke="red" stroke-width="0.13" points="192.79,-192.44 182.43,-190.24 189.15,-198.43 192.79,-192.44"/>
</g>
<!-- F6&#45;&gt;36 -->
<g id="edge31" class="edge">
<title>F6&#45;&gt;36</title>
<path fill="none" stroke="red" stroke-width="0.35" d="M309.23,-244.41C292.95,-232.6 263.39,-211.16 243.03,-196.39"/>
<polygon fill="red" stroke="red" stroke-width="0.35" points="245.34,-193.74 235.19,-190.71 241.23,-199.41 245.34,-193.74"/>
</g>
<!-- F6&#45;&gt;38 -->
<g id="edge32" class="edge">
<title>F6&#45;&gt;38</title>
<path fill="none" stroke="green" stroke-width="0.5" d="M321.8,-244.41C322.57,-235.2 323.81,-220.13 324.9,-206.93"/>
<polygon fill="green" stroke="green" stroke-width="0.5" points="328.36,-207.59 325.7,-197.34 321.39,-207.01 328.36,-207.59"/>
</g>
<!-- F6&#45;&gt;39 -->
<g id="edge33" class="edge">
<title>F6&#45;&gt;39</title>
<path fill="none" stroke="red" stroke-width="0.22" d="M328.09,-244.41C336.69,-233.84 351.58,-215.53 363.23,-201.21"/>
<polygon fill="red" stroke="red" stroke-width="0.22" points="365.71,-203.71 369.3,-193.74 360.28,-199.29 365.71,-203.71"/>
</g>
<!-- F6&#45;&gt;41 -->
<g id="edge34" class="edge">
<title>F6&#45;&gt;41</title>
<path fill="none" stroke="red" stroke-width="0.14" d="M315.52,-244.41C308.95,-234.28 297.79,-217.06 288.71,-203.04"/>
<polygon fill="red" stroke="red" stroke-width="0.14" points="291.76,-201.31 283.38,-194.82 285.88,-205.11 291.76,-201.31"/>
</g>
<!-- RL -->
<g id="node9" class="node">
<title>RL</title>
<ellipse fill="lightblue" stroke="black" cx="324.09" cy="-101.76" rx="19.27" ry="19.27"/>
<text text-anchor="middle" x="324.09" y="-98.46" font-family="Times,serif" font-size="9.00">RL</text>
</g>
<!-- RR -->
<g id="node10" class="node">
<title>RR</title>
<ellipse fill="lightblue" stroke="black" cx="229.09" cy="-101.76" rx="19.8" ry="19.8"/>
<text text-anchor="middle" x="229.09" y="-98.46" font-family="Times,serif" font-size="9.00">RR</text>
</g>
<!-- 35&#45;&gt;FW -->
<g id="edge35" class="edge">
<title>35&#45;&gt;FW</title>
<path fill="none" stroke="green" stroke-width="0.18" stroke-dasharray="1,5" d="M154.7,-168.02C143.58,-158.41 128.58,-143.08 122.09,-125.8 114.59,-105.79 109.81,-95.21 122.09,-77.72 150.12,-37.82 209.56,-26.29 246.14,-23.04"/>
<polygon fill="green" stroke="green" stroke-width="0.18" points="246.09,-26.55 255.8,-22.32 245.57,-19.57 246.09,-26.55"/>
</g>
<!-- 35&#45;&gt;RR -->
<g id="edge36" class="edge">
<title>35&#45;&gt;RR</title>
<path fill="none" stroke="red" stroke-width="0.2" d="M179,-164.94C187.85,-153.95 200.53,-138.22 210.91,-125.33"/>
<polygon fill="red" stroke="red" stroke-width="0.2" points="213.48,-127.72 217.03,-117.74 208.03,-123.33 213.48,-127.72"/>
</g>
<!-- 36&#45;&gt;FW -->
<g id="edge37" class="edge">
<title>36&#45;&gt;FW</title>
<path fill="none" stroke="red" stroke-width="0.2" stroke-dasharray="1,5" d="M206.58,-169.03C202.85,-166.65 198.84,-164.11 195.09,-161.8 168.28,-145.3 149.7,-153.14 134.09,-125.8 123.5,-107.24 122.04,-95.37 134.09,-77.72 159.16,-41.02 212.24,-28.43 246.21,-24.11"/>
<polygon fill="red" stroke="red" stroke-width="0.2" points="246.53,-27.6 256.08,-23.02 245.76,-20.64 246.53,-27.6"/>
</g>
<!-- 36&#45;&gt;RL -->
<g id="edge38" class="edge">
<title>36&#45;&gt;RL</title>
<path fill="none" stroke="green" stroke-width="0.82" stroke-dasharray="1,5" d="M234.98,-168.27C251.65,-156.02 279.87,-135.27 300.09,-120.41"/>
<polygon fill="green" stroke="green" stroke-width="0.82" points="301.76,-122.79 307.75,-114.04 297.62,-117.15 301.76,-122.79"/>
</g>
<!-- 36&#45;&gt;RR -->
<g id="edge39" class="edge">
<title>36&#45;&gt;RR</title>
<path fill="none" stroke="green" stroke-width="0.67" d="M222.87,-161.68C223.77,-153.13 224.9,-142.48 225.94,-132.6"/>
<polygon fill="green" stroke="green" stroke-width="0.67" points="229.5,-133.23 227.07,-122.92 222.54,-132.5 229.5,-133.23"/>
</g>
<!-- 1571 -->
<g id="node13" class="node">
<title>1571</title>
<ellipse fill="white" stroke="black" cx="167.09" cy="-101.76" rx="24.04" ry="24.04"/>
<text text-anchor="middle" x="167.09" y="-98.46" font-family="Times,serif" font-size="9.00">1571</text>
</g>
<!-- 36&#45;&gt;1571 -->
<g id="edge52" class="edge">
<title>36&#45;&gt;1571</title>
<path fill="none" stroke="green" stroke-width="0.24" d="M211.19,-164.59C204.26,-154.88 194.78,-141.59 186.39,-129.82"/>
<polygon fill="green" stroke="green" stroke-width="0.24" points="189.45,-128.09 180.8,-121.98 183.75,-132.15 189.45,-128.09"/>
</g>
<!-- 1571&#45;&gt;FW -->
<g id="edge53" class="edge">
<title>1571&#45;&gt;FW</title>
<path fill="none" stroke="green" stroke-width="0.21" d="M186.51,-86.84C204.85,-73.68 232.46,-53.87 252.38,-39.59"/>
<polygon fill="green" stroke="green" stroke-width="0.21" points="254.31,-42.51 260.39,-33.84 250.23,-36.82 254.31,-42.51"/>
</g>
<!-- 38&#45;&gt;FW -->
<g id="edge40" class="edge">
<title>38&#45;&gt;FW</title>
<path fill="none" stroke="green" stroke-width="0.26" d="M336.65,-164.1C348.78,-143.9 366.49,-106.39 352.09,-77.72 342.23,-58.07 321.82,-43.58 304.78,-34.29"/>
<polygon fill="green" stroke="green" stroke-width="0.26" points="306.74,-31.36 296.25,-29.91 303.54,-37.59 306.74,-31.36"/>
</g>
<!-- 38&#45;&gt;RL -->
<g id="edge41" class="edge">
<title>38&#45;&gt;RL</title>
<path fill="none" stroke="green" stroke-width="0.31" d="M326.43,-161.68C326.07,-152.72 325.63,-141.47 325.22,-131.2"/>
<polygon fill="green" stroke="green" stroke-width="0.31" points="328.72,-131.23 324.83,-121.38 321.73,-131.51 328.72,-131.23"/>
</g>
<!-- 38&#45;&gt;RR -->
<g id="edge42" class="edge">
<title>38&#45;&gt;RR</title>
<path fill="none" stroke="green" stroke-width="0.31" stroke-dasharray="1,5" d="M313.47,-167.95C297.64,-155.72 271.26,-135.34 252.21,-120.62"/>
<polygon fill="green" stroke="green" stroke-width="0.31" points="254.59,-118.04 244.54,-114.7 250.31,-123.58 254.59,-118.04"/>
</g>
<!-- 39&#45;&gt;FW -->
<g id="edge43" class="edge">
<title>39&#45;&gt;FW</title>
<path fill="none" stroke="red" stroke-width="0.25" d="M382.53,-161.67C384.72,-140.39 385.44,-103.4 369.09,-77.72 354.65,-55.03 327.36,-40.19 306.24,-31.55"/>
<polygon fill="red" stroke="red" stroke-width="0.25" points="307.62,-28.34 297.03,-28.02 305.11,-34.87 307.62,-28.34"/>
</g>
<!-- 39&#45;&gt;RL -->
<g id="edge44" class="edge">
<title>39&#45;&gt;RL</title>
<path fill="none" stroke="green" stroke-width="0.33" d="M369.82,-164.59C361.79,-153.74 350.46,-138.41 341.08,-125.73"/>
<polygon fill="green" stroke="green" stroke-width="0.33" points="344.02,-123.82 335.26,-117.86 338.39,-127.98 344.02,-123.82"/>
</g>
<!-- 39&#45;&gt;RR -->
<g id="edge45" class="edge">
<title>39&#45;&gt;RR</title>
<path fill="none" stroke="green" stroke-width="0.38" d="M365.72,-168.79C361.99,-166.41 357.94,-163.93 354.09,-161.8 321.33,-143.65 282.06,-125.69 256.39,-114.43"/>
<polygon fill="green" stroke="green" stroke-width="0.38" points="257.82,-111.24 247.26,-110.46 255.03,-117.66 257.82,-111.24"/>
</g>
<!-- 41&#45;&gt;FW -->
<g id="edge46" class="edge">
<title>41&#45;&gt;FW</title>
<path fill="none" stroke="red" stroke-width="0.57" d="M274.42,-161.42C274.92,-135.17 275.89,-84.49 276.52,-51.97"/>
<polygon fill="red" stroke="red" stroke-width="0.57" points="280.01,-52.16 276.71,-42.1 273.01,-52.03 280.01,-52.16"/>
</g>
<!-- 41&#45;&gt;RL -->
<g id="edge47" class="edge">
<title>41&#45;&gt;RL</title>
<path fill="none" stroke="green" stroke-width="0.35" d="M283.5,-164.24C290.48,-153.66 300.18,-138.98 308.34,-126.62"/>
<polygon fill="green" stroke="green" stroke-width="0.35" points="311.11,-128.78 313.69,-118.51 305.26,-124.92 311.11,-128.78"/>
</g>
<!-- 41&#45;&gt;RR -->
<g id="edge48" class="edge">
<title>41&#45;&gt;RR</title>
<path fill="none" stroke="green" stroke-width="0.1" d="M265.42,-163.88C259.33,-153.64 251.05,-139.7 243.93,-127.72"/>
<polygon fill="green" stroke="green" stroke-width="0.1" points="247.11,-126.23 239,-119.42 241.1,-129.81 247.11,-126.23"/>
</g>
<!-- 914&#45;&gt;35 -->
<g id="edge50" class="edge">
<title>914&#45;&gt;35</title>
<path fill="none" stroke="green" stroke-width="0.18" stroke-dasharray="1,5" d="M64.11,-241.5C68.32,-238.72 72.85,-235.79 77.09,-233.16 99.53,-219.26 125.64,-204.26 144.13,-193.83"/>
<polygon fill="green" stroke="green" stroke-width="0.18" points="145.79,-196.92 152.79,-188.97 142.36,-190.81 145.79,-196.92"/>
</g>
</g>
</svg>
