<?xml version="1.0" encoding="UTF-8" standalone="no"?>
<!DOCTYPE svg PUBLIC "-//W3C//DTD SVG 1.1//EN"
 "http://www.w3.org/Graphics/SVG/1.1/DTD/svg11.dtd">
<!-- Generated by graphviz version 8.0.5 (20230430.1635)
 -->
<!-- Pages: 1 -->
<svg width="1832pt" height="163pt"
 viewBox="0.00 0.00 1832.15 162.85" xmlns="http://www.w3.org/2000/svg" xmlns:xlink="http://www.w3.org/1999/xlink">
<g id="graph0" class="graph" transform="scale(1 1) rotate(0) translate(4 158.85)">
<polygon fill="white" stroke="none" points="-4,4 -4,-158.85 1828.15,-158.85 1828.15,4 -4,4"/>
<!-- &#45;1 -->
<g id="node1" class="node">
<title>&#45;1</title>
<polygon fill="lightgray" stroke="black" points="853.83,-154.85 830.33,-154.85 830.33,-136.35 853.83,-136.35 853.83,-154.85"/>
<text text-anchor="middle" x="842.08" y="-142.3" font-family="Times,serif" font-size="9.00">&#45;1</text>
</g>
<!-- 0 -->
<g id="node9" class="node">
<title>0</title>
<ellipse fill="lightblue" stroke="black" cx="890.08" cy="-14.5" rx="14.5" ry="14.5"/>
<text text-anchor="middle" x="890.08" y="-11.2" font-family="Times,serif" font-size="9.00">0</text>
</g>
<!-- &#45;1&#45;&gt;0 -->
<g id="edge105" class="edge">
<title>&#45;1&#45;&gt;0</title>
<path fill="none" stroke="green" stroke-width="0.38" d="M830.01,-139.91C826.23,-138.6 822.02,-137.27 818.08,-136.35 757.42,-122.15 581.2,-147.14 540.08,-100.35 529.7,-88.54 529.6,-76.7 540.08,-64.99 588.55,-10.86 795.72,-50.65 865.08,-28.99 866.46,-28.56 867.85,-28.05 869.24,-27.48"/>
<polygon fill="green" stroke="green" stroke-width="0.38" points="870.57,-30.73 878.03,-23.21 867.51,-24.44 870.57,-30.73"/>
</g>
<!-- 1 -->
<g id="node10" class="node">
<title>1</title>
<ellipse fill="lightblue" stroke="black" cx="1010.08" cy="-14.5" rx="14.5" ry="14.5"/>
<text text-anchor="middle" x="1010.08" y="-11.2" font-family="Times,serif" font-size="9.00">1</text>
</g>
<!-- &#45;1&#45;&gt;1 -->
<g id="edge106" class="edge">
<title>&#45;1&#45;&gt;1</title>
<path fill="none" stroke="red" stroke-width="0.24" d="M854.13,-140.32C858.48,-138.89 863.46,-137.4 868.08,-136.35 923.01,-123.78 1082.17,-142.93 1119.08,-100.35 1129.37,-88.47 1127.59,-78.2 1119.08,-64.99 1100.4,-35.99 1060.12,-23.79 1034.11,-18.8"/>
<polygon fill="red" stroke="red" stroke-width="0.24" points="1035.03,-15.4 1024.58,-17.16 1033.85,-22.3 1035.03,-15.4"/>
</g>
<!-- 2 -->
<g id="node11" class="node">
<title>2</title>
<ellipse fill="lightblue" stroke="black" cx="962.08" cy="-14.5" rx="14.5" ry="14.5"/>
<text text-anchor="middle" x="962.08" y="-11.2" font-family="Times,serif" font-size="9.00">2</text>
</g>
<!-- &#45;1&#45;&gt;2 -->
<g id="edge107" class="edge">
<title>&#45;1&#45;&gt;2</title>
<path fill="none" stroke="red" stroke-width="0.42" d="M829.95,-140.43C800.65,-130.3 728.22,-104.9 725.08,-100.35 716.14,-87.42 715.06,-77.1 725.08,-64.99 779.28,0.58 830.22,-48.3 913.08,-28.99 921.54,-27.02 930.73,-24.57 938.85,-22.3"/>
<polygon fill="red" stroke="red" stroke-width="0.42" points="939.77,-25.68 948.42,-19.57 937.85,-18.95 939.77,-25.68"/>
</g>
<!-- 3 -->
<g id="node12" class="node">
<title>3</title>
<ellipse fill="lightblue" stroke="black" cx="842.08" cy="-14.5" rx="14.5" ry="14.5"/>
<text text-anchor="middle" x="842.08" y="-11.2" font-family="Times,serif" font-size="9.00">3</text>
</g>
<!-- &#45;1&#45;&gt;3 -->
<g id="edge108" class="edge">
<title>&#45;1&#45;&gt;3</title>
<path fill="none" stroke="red" stroke-width="0.23" d="M830.03,-139.8C826.26,-138.48 822.04,-137.18 818.08,-136.35 771.16,-126.48 420.53,-135.63 388.08,-100.35 377.44,-88.78 377.44,-76.56 388.08,-64.99 452.99,5.58 726.41,-57.14 818.08,-28.99 819.26,-28.63 820.45,-28.2 821.63,-27.73"/>
<polygon fill="red" stroke="red" stroke-width="0.23" points="822.91,-31 830.32,-23.43 819.81,-24.72 822.91,-31"/>
</g>
<!-- 4 -->
<g id="node13" class="node">
<title>4</title>
<ellipse fill="lightblue" stroke="black" cx="795.08" cy="-14.5" rx="14.5" ry="14.5"/>
<text text-anchor="middle" x="795.08" y="-11.2" font-family="Times,serif" font-size="9.00">4</text>
</g>
<!-- &#45;1&#45;&gt;4 -->
<g id="edge109" class="edge">
<title>&#45;1&#45;&gt;4</title>
<path fill="none" stroke="red" stroke-width="0.16" d="M830.03,-139.8C826.26,-138.48 822.04,-137.18 818.08,-136.35 769.96,-126.28 410.4,-136.5 377.08,-100.35 366.43,-88.79 366.64,-76.74 377.08,-64.99 403.38,-35.39 684.74,-20.44 770.44,-16.54"/>
<polygon fill="red" stroke="red" stroke-width="0.16" points="770.5,-20.04 780.33,-16.1 770.19,-13.05 770.5,-20.04"/>
</g>
<!-- 5 -->
<g id="node14" class="node">
<title>5</title>
<ellipse fill="white" stroke="black" cx="748.08" cy="-82.67" rx="14.5" ry="14.5"/>
<text text-anchor="middle" x="748.08" y="-79.37" font-family="Times,serif" font-size="9.00">5</text>
</g>
<!-- &#45;1&#45;&gt;5 -->
<g id="edge1" class="edge">
<title>&#45;1&#45;&gt;5</title>
<path fill="none" stroke="green" stroke-width="0.43" d="M829.83,-137.08C815.78,-128.4 792.09,-113.62 772.08,-100.35 770.68,-99.42 769.25,-98.46 767.81,-97.48"/>
<polygon fill="green" stroke="green" stroke-width="0.43" points="769.95,-94.7 759.73,-91.92 765.98,-100.47 769.95,-94.7"/>
</g>
<!-- 6 -->
<g id="node15" class="node">
<title>6</title>
<ellipse fill="white" stroke="black" cx="795.08" cy="-82.67" rx="14.5" ry="14.5"/>
<text text-anchor="middle" x="795.08" y="-79.37" font-family="Times,serif" font-size="9.00">6</text>
</g>
<!-- &#45;1&#45;&gt;6 -->
<g id="edge2" class="edge">
<title>&#45;1&#45;&gt;6</title>
<path fill="none" stroke="red" stroke-width="0.16" d="M835.34,-135.87C828.71,-127.27 818.35,-113.84 809.81,-102.76"/>
<polygon fill="red" stroke="red" stroke-width="0.16" points="812.59,-100.65 803.71,-94.87 807.05,-104.92 812.59,-100.65"/>
</g>
<!-- 7 -->
<g id="node16" class="node">
<title>7</title>
<ellipse fill="white" stroke="black" cx="842.08" cy="-82.67" rx="14.5" ry="14.5"/>
<text text-anchor="middle" x="842.08" y="-79.37" font-family="Times,serif" font-size="9.00">7</text>
</g>
<!-- &#45;1&#45;&gt;7 -->
<g id="edge3" class="edge">
<title>&#45;1&#45;&gt;7</title>
<path fill="none" stroke="red" stroke-width="0.25" d="M842.08,-135.87C842.08,-128.44 842.08,-117.43 842.08,-107.42"/>
<polygon fill="red" stroke="red" stroke-width="0.25" points="845.58,-107.56 842.08,-97.56 838.58,-107.56 845.58,-107.56"/>
</g>
<!-- 8 -->
<g id="node17" class="node">
<title>8</title>
<ellipse fill="white" stroke="black" cx="889.08" cy="-82.67" rx="14.5" ry="14.5"/>
<text text-anchor="middle" x="889.08" y="-79.37" font-family="Times,serif" font-size="9.00">8</text>
</g>
<!-- &#45;1&#45;&gt;8 -->
<g id="edge4" class="edge">
<title>&#45;1&#45;&gt;8</title>
<path fill="none" stroke="green" stroke-width="0.14" d="M848.81,-135.87C855.45,-127.27 865.8,-113.84 874.35,-102.76"/>
<polygon fill="green" stroke="green" stroke-width="0.14" points="877.1,-104.92 880.44,-94.87 871.56,-100.65 877.1,-104.92"/>
</g>
<!-- 9 -->
<g id="node18" class="node">
<title>9</title>
<ellipse fill="white" stroke="black" cx="936.08" cy="-82.67" rx="14.5" ry="14.5"/>
<text text-anchor="middle" x="936.08" y="-79.37" font-family="Times,serif" font-size="9.00">9</text>
</g>
<!-- &#45;1&#45;&gt;9 -->
<g id="edge5" class="edge">
<title>&#45;1&#45;&gt;9</title>
<path fill="none" stroke="red" stroke-width="0.37" d="M854.32,-137.08C868.37,-128.4 892.07,-113.62 912.08,-100.35 913.47,-99.42 914.91,-98.46 916.35,-97.48"/>
<polygon fill="red" stroke="red" stroke-width="0.37" points="918.18,-100.47 924.43,-91.92 914.21,-94.7 918.18,-100.47"/>
</g>
<!-- 10 -->
<g id="node19" class="node">
<title>10</title>
<ellipse fill="white" stroke="black" cx="986.08" cy="-82.67" rx="17.68" ry="17.68"/>
<text text-anchor="middle" x="986.08" y="-79.37" font-family="Times,serif" font-size="9.00">10</text>
</g>
<!-- &#45;1&#45;&gt;10 -->
<g id="edge6" class="edge">
<title>&#45;1&#45;&gt;10</title>
<path fill="none" stroke="green" stroke-width="0.21" d="M854.01,-140.41C879.74,-131.34 939.69,-109.89 959.08,-100.35 960.37,-99.71 961.69,-99.02 963.01,-98.31"/>
<polygon fill="green" stroke="green" stroke-width="0.21" points="964.62,-101.42 971.51,-93.37 961.11,-95.37 964.62,-101.42"/>
</g>
<!-- 11 -->
<g id="node20" class="node">
<title>11</title>
<ellipse fill="white" stroke="black" cx="1039.08" cy="-82.67" rx="17.68" ry="17.68"/>
<text text-anchor="middle" x="1039.08" y="-79.37" font-family="Times,serif" font-size="9.00">11</text>
</g>
<!-- &#45;1&#45;&gt;11 -->
<g id="edge7" class="edge">
<title>&#45;1&#45;&gt;11</title>
<path fill="none" stroke="green" stroke-width="0.24" d="M854.2,-140.57C858.56,-139.17 863.52,-137.63 868.08,-136.35 931.98,-118.3 952.1,-126.62 1013.08,-100.35 1014.21,-99.86 1015.35,-99.32 1016.49,-98.75"/>
<polygon fill="green" stroke="green" stroke-width="0.24" points="1018.03,-101.9 1024.97,-93.9 1014.55,-95.83 1018.03,-101.9"/>
</g>
<!-- 12 -->
<g id="node21" class="node">
<title>12</title>
<ellipse fill="white" stroke="black" cx="1092.08" cy="-82.67" rx="17.68" ry="17.68"/>
<text text-anchor="middle" x="1092.08" y="-79.37" font-family="Times,serif" font-size="9.00">12</text>
</g>
<!-- &#45;1&#45;&gt;12 -->
<g id="edge8" class="edge">
<title>&#45;1&#45;&gt;12</title>
<path fill="none" stroke="red" stroke-width="0.22" d="M854.15,-140.41C858.51,-139 863.48,-137.49 868.08,-136.35 954.88,-114.78 982.85,-133.12 1066.08,-100.35 1067.23,-99.89 1068.38,-99.39 1069.53,-98.84"/>
<polygon fill="red" stroke="red" stroke-width="0.22" points="1071.02,-102.01 1078.04,-94.08 1067.61,-95.91 1071.02,-102.01"/>
</g>
<!-- &#45;2 -->
<g id="node2" class="node">
<title>&#45;2</title>
<polygon fill="lightgray" stroke="black" points="947.83,-154.85 924.33,-154.85 924.33,-136.35 947.83,-136.35 947.83,-154.85"/>
<text text-anchor="middle" x="936.08" y="-142.3" font-family="Times,serif" font-size="9.00">&#45;2</text>
</g>
<!-- &#45;2&#45;&gt;0 -->
<g id="edge110" class="edge">
<title>&#45;2&#45;&gt;0</title>
<path fill="none" stroke="red" stroke-width="0.17" d="M948.18,-141.02C953.36,-139.52 959.5,-137.79 965.08,-136.35 1033.12,-118.73 1075.4,-155.42 1119.08,-100.35 1128.84,-88.04 1129.04,-77.14 1119.08,-64.99 1067.35,-1.9 1018.45,-47.84 939.08,-28.99 930.63,-26.99 921.43,-24.53 913.31,-22.26"/>
<polygon fill="red" stroke="red" stroke-width="0.17" points="914.31,-18.91 903.74,-19.54 912.4,-25.64 914.31,-18.91"/>
</g>
<!-- &#45;2&#45;&gt;1 -->
<g id="edge111" class="edge">
<title>&#45;2&#45;&gt;1</title>
<path fill="none" stroke="green" stroke-width="0.26" d="M948.07,-140.52C953.24,-138.93 959.39,-137.28 965.08,-136.35 1048.18,-122.74 1663.97,-161.29 1722.08,-100.35 1732.92,-88.97 1732.8,-76.48 1722.08,-64.99 1674.23,-13.71 1154.07,-14.42 1034.49,-15.27"/>
<polygon fill="green" stroke="green" stroke-width="0.26" points="1034.75,-11.77 1024.78,-15.35 1034.81,-18.77 1034.75,-11.77"/>
</g>
<!-- &#45;2&#45;&gt;2 -->
<g id="edge112" class="edge">
<title>&#45;2&#45;&gt;2</title>
<path fill="none" stroke="red" stroke-width="0.22" d="M948.11,-140.71C953.28,-139.16 959.43,-137.48 965.08,-136.35 1031.12,-123.09 1221.36,-150.73 1266.08,-100.35 1276.51,-88.59 1276.45,-76.79 1266.08,-64.99 1224.8,-18.04 1046.58,-48.16 987.08,-28.99 985.7,-28.55 984.31,-28.03 982.92,-27.45"/>
<polygon fill="red" stroke="red" stroke-width="0.22" points="984.66,-24.41 974.14,-23.16 981.59,-30.7 984.66,-24.41"/>
</g>
<!-- &#45;2&#45;&gt;3 -->
<g id="edge113" class="edge">
<title>&#45;2&#45;&gt;3</title>
<path fill="none" stroke="green" stroke-width="0.5" d="M923.99,-140.44C919.64,-139.03 914.67,-137.52 910.08,-136.35 828.91,-115.65 778.35,-164.99 725.08,-100.35 715.08,-88.22 716.19,-77.95 725.08,-64.99 750.13,-28.43 777.99,-47.9 818.08,-28.99 819.2,-28.46 820.33,-27.9 821.47,-27.33"/>
<polygon fill="green" stroke="green" stroke-width="0.5" points="822.9,-30.53 830.04,-22.71 819.58,-24.37 822.9,-30.53"/>
</g>
<!-- &#45;2&#45;&gt;4 -->
<g id="edge114" class="edge">
<title>&#45;2&#45;&gt;4</title>
<path fill="none" stroke="red" stroke-width="0.39" d="M924.02,-140.31C919.67,-138.88 914.69,-137.4 910.08,-136.35 854.06,-123.61 691.76,-143.71 654.08,-100.35 643.77,-88.49 644.99,-77.81 654.08,-64.99 680.61,-27.56 737.78,-18.22 770.59,-16.03"/>
<polygon fill="red" stroke="red" stroke-width="0.39" points="770.5,-19.54 780.32,-15.54 770.15,-12.55 770.5,-19.54"/>
</g>
<!-- &#45;2&#45;&gt;5 -->
<g id="edge9" class="edge">
<title>&#45;2&#45;&gt;5</title>
<path fill="none" stroke="green" stroke-width="0.44" d="M923.95,-140.6C919.59,-139.21 914.63,-137.66 910.08,-136.35 849.18,-118.76 829.66,-126.84 772.08,-100.35 770.35,-99.55 768.61,-98.63 766.9,-97.64"/>
<polygon fill="green" stroke="green" stroke-width="0.44" points="769.1,-94.89 758.82,-92.34 765.26,-100.75 769.1,-94.89"/>
</g>
<!-- &#45;2&#45;&gt;6 -->
<g id="edge10" class="edge">
<title>&#45;2&#45;&gt;6</title>
<path fill="none" stroke="green" stroke-width="0.26" d="M924.1,-140.49C898.29,-131.57 838.2,-110.41 819.08,-100.35 817.59,-99.57 816.1,-98.71 814.61,-97.81"/>
<polygon fill="green" stroke="green" stroke-width="0.26" points="816.71,-95 806.43,-92.41 812.85,-100.84 816.71,-95"/>
</g>
<!-- &#45;2&#45;&gt;7 -->
<g id="edge11" class="edge">
<title>&#45;2&#45;&gt;7</title>
<path fill="none" stroke="red" stroke-width="0.22" d="M923.83,-137.08C909.78,-128.4 886.09,-113.62 866.08,-100.35 864.68,-99.42 863.25,-98.46 861.81,-97.48"/>
<polygon fill="red" stroke="red" stroke-width="0.22" points="863.95,-94.7 853.73,-91.92 859.98,-100.47 863.95,-94.7"/>
</g>
<!-- &#45;2&#45;&gt;8 -->
<g id="edge12" class="edge">
<title>&#45;2&#45;&gt;8</title>
<path fill="none" stroke="green" stroke-width="0.11" d="M929.34,-135.87C922.71,-127.27 912.35,-113.84 903.81,-102.76"/>
<polygon fill="green" stroke="green" stroke-width="0.11" points="906.59,-100.65 897.71,-94.87 901.05,-104.92 906.59,-100.65"/>
</g>
<!-- &#45;2&#45;&gt;9 -->
<g id="edge13" class="edge">
<title>&#45;2&#45;&gt;9</title>
<path fill="none" stroke="green" stroke-width="0.49" d="M936.08,-135.87C936.08,-128.44 936.08,-117.43 936.08,-107.42"/>
<polygon fill="green" stroke="green" stroke-width="0.49" points="939.58,-107.56 936.08,-97.56 932.58,-107.56 939.58,-107.56"/>
</g>
<!-- &#45;2&#45;&gt;10 -->
<g id="edge14" class="edge">
<title>&#45;2&#45;&gt;10</title>
<path fill="none" stroke="green" stroke-width="0.2" d="M943.24,-135.87C949.87,-127.79 959.98,-115.46 968.72,-104.82"/>
<polygon fill="green" stroke="green" stroke-width="0.2" points="971.42,-107.05 975.06,-97.1 966.01,-102.61 971.42,-107.05"/>
</g>
<!-- &#45;2&#45;&gt;11 -->
<g id="edge15" class="edge">
<title>&#45;2&#45;&gt;11</title>
<path fill="none" stroke="red" stroke-width="0.44" d="M948.19,-137.88C963.44,-129.36 990.41,-114.12 1013.08,-100.35 1014.13,-99.7 1015.21,-99.04 1016.3,-98.37"/>
<polygon fill="red" stroke="red" stroke-width="0.44" points="1017.99,-101.44 1024.58,-93.14 1014.25,-95.52 1017.99,-101.44"/>
</g>
<!-- &#45;2&#45;&gt;12 -->
<g id="edge16" class="edge">
<title>&#45;2&#45;&gt;12</title>
<path fill="none" stroke="green" stroke-width="0.29" d="M948.09,-140.92C975.99,-132.31 1044.39,-110.8 1066.08,-100.35 1067.19,-99.81 1068.32,-99.23 1069.44,-98.63"/>
<polygon fill="green" stroke="green" stroke-width="0.29" points="1071.03,-101.76 1077.86,-93.66 1067.47,-95.73 1071.03,-101.76"/>
</g>
<!-- &#45;3 -->
<g id="node3" class="node">
<title>&#45;3</title>
<polygon fill="lightgray" stroke="black" points="766.83,-154.85 743.33,-154.85 743.33,-136.35 766.83,-136.35 766.83,-154.85"/>
<text text-anchor="middle" x="755.08" y="-142.3" font-family="Times,serif" font-size="9.00">&#45;3</text>
</g>
<!-- &#45;3&#45;&gt;0 -->
<g id="edge115" class="edge">
<title>&#45;3&#45;&gt;0</title>
<path fill="none" stroke="red" stroke-width="0.29" d="M742.94,-144.77C656.08,-145.86 130.9,-150.36 84.08,-100.35 73.34,-88.88 73.22,-76.36 84.08,-64.99 144.07,-2.17 781.37,-52.21 865.08,-28.99 866.47,-28.6 867.88,-28.13 869.27,-27.59"/>
<polygon fill="red" stroke="red" stroke-width="0.29" points="870.57,-30.85 878.08,-23.38 867.55,-24.53 870.57,-30.85"/>
</g>
<!-- &#45;3&#45;&gt;1 -->
<g id="edge116" class="edge">
<title>&#45;3&#45;&gt;1</title>
<path fill="none" stroke="green" stroke-width="0.19" d="M744.61,-135.86C727.13,-120.24 695.72,-87.1 715.08,-64.99 754.95,-19.45 927.5,-47.67 985.08,-28.99 986.45,-28.54 987.85,-28.02 989.23,-27.45"/>
<polygon fill="green" stroke="green" stroke-width="0.19" points="990.57,-30.69 998.01,-23.15 987.49,-24.4 990.57,-30.69"/>
</g>
<!-- &#45;3&#45;&gt;2 -->
<g id="edge117" class="edge">
<title>&#45;3&#45;&gt;2</title>
<path fill="none" stroke="red" stroke-width="0.2" d="M743.18,-144.52C668.98,-143.93 271.55,-138.98 236.08,-100.35 225.45,-88.77 225.26,-76.39 236.08,-64.99 287.91,-10.33 838.72,-41.06 913.08,-28.99 921.65,-27.6 930.88,-25.28 938.98,-22.96"/>
<polygon fill="red" stroke="red" stroke-width="0.2" points="939.96,-26.32 948.52,-20.08 937.94,-19.62 939.96,-26.32"/>
</g>
<!-- &#45;3&#45;&gt;3 -->
<g id="edge118" class="edge">
<title>&#45;3&#45;&gt;3</title>
<path fill="none" stroke="red" stroke-width="0.17" d="M742.94,-144.31C651.28,-142.06 70.96,-126.83 46.08,-100.35 35.32,-88.89 35.23,-76.36 46.08,-64.99 105.37,-2.87 735.54,-52.67 818.08,-28.99 819.27,-28.65 820.46,-28.24 821.64,-27.78"/>
<polygon fill="red" stroke="red" stroke-width="0.17" points="822.91,-31.06 830.35,-23.52 819.83,-24.77 822.91,-31.06"/>
</g>
<!-- &#45;3&#45;&gt;4 -->
<g id="edge119" class="edge">
<title>&#45;3&#45;&gt;4</title>
<path fill="none" stroke="green" stroke-width="0.12" d="M742.89,-144.35C648.32,-142.34 34.39,-128.27 8.08,-100.35 -2.7,-88.91 -2.68,-76.45 8.08,-64.99 34.82,-36.51 639.93,-19.46 770.42,-16.11"/>
<polygon fill="green" stroke="green" stroke-width="0.12" points="770.37,-19.61 780.28,-15.86 770.19,-12.61 770.37,-19.61"/>
</g>
<!-- &#45;3&#45;&gt;5 -->
<g id="edge17" class="edge">
<title>&#45;3&#45;&gt;5</title>
<path fill="none" stroke="green" stroke-width="0.21" d="M754.07,-135.87C753.22,-128.44 751.96,-117.43 750.81,-107.42"/>
<polygon fill="green" stroke="green" stroke-width="0.21" points="754.29,-107.1 749.67,-97.56 747.34,-107.9 754.29,-107.1"/>
</g>
<!-- &#45;3&#45;&gt;6 -->
<g id="edge18" class="edge">
<title>&#45;3&#45;&gt;6</title>
<path fill="none" stroke="green" stroke-width="0.16" d="M760.81,-135.87C766.33,-127.46 774.88,-114.43 782.06,-103.49"/>
<polygon fill="green" stroke="green" stroke-width="0.16" points="784.88,-105.58 787.44,-95.3 779.03,-101.74 784.88,-105.58"/>
</g>
<!-- &#45;3&#45;&gt;7 -->
<g id="edge19" class="edge">
<title>&#45;3&#45;&gt;7</title>
<path fill="none" stroke="red" stroke-width="0.19" d="M767.17,-136.12C781.41,-126.16 805.25,-109.46 822.21,-97.58"/>
<polygon fill="red" stroke="red" stroke-width="0.19" points="824.18,-100.48 830.36,-91.87 820.16,-94.74 824.18,-100.48"/>
</g>
<!-- &#45;3&#45;&gt;8 -->
<g id="edge20" class="edge">
<title>&#45;3&#45;&gt;8</title>
<path fill="none" stroke="red" stroke-width="0.34" d="M767.08,-139.85C794.66,-128.94 860.5,-102.82 865.08,-100.35 866.55,-99.55 868.04,-98.68 869.52,-97.78"/>
<polygon fill="red" stroke="red" stroke-width="0.34" points="871.29,-100.8 877.69,-92.36 867.43,-94.97 871.29,-100.8"/>
</g>
<!-- &#45;3&#45;&gt;9 -->
<g id="edge21" class="edge">
<title>&#45;3&#45;&gt;9</title>
<path fill="none" stroke="red" stroke-width="0.49" d="M766.98,-139.64C769.93,-138.49 773.1,-137.32 776.08,-136.35 835.5,-116.88 855.32,-126.58 912.08,-100.35 913.8,-99.55 915.54,-98.63 917.25,-97.63"/>
<polygon fill="red" stroke="red" stroke-width="0.49" points="918.89,-100.74 925.33,-92.33 915.05,-94.89 918.89,-100.74"/>
</g>
<!-- &#45;3&#45;&gt;10 -->
<g id="edge22" class="edge">
<title>&#45;3&#45;&gt;10</title>
<path fill="none" stroke="green" stroke-width="0.17" d="M766.94,-139.51C769.89,-138.36 773.07,-137.23 776.08,-136.35 855.64,-113.1 881.91,-130.61 959.08,-100.35 960.59,-99.75 962.12,-99.07 963.63,-98.33"/>
<polygon fill="green" stroke="green" stroke-width="0.17" points="964.97,-101.6 972.01,-93.68 961.57,-95.48 964.97,-101.6"/>
</g>
<!-- &#45;3&#45;&gt;11 -->
<g id="edge23" class="edge">
<title>&#45;3&#45;&gt;11</title>
<path fill="none" stroke="red" stroke-width="0.21" d="M766.91,-139.41C769.86,-138.27 773.05,-137.16 776.08,-136.35 878.97,-108.7 913.39,-137.93 1013.08,-100.35 1014.23,-99.91 1015.39,-99.42 1016.55,-98.88"/>
<polygon fill="red" stroke="red" stroke-width="0.21" points="1018.02,-102.07 1025.07,-94.16 1014.63,-95.94 1018.02,-102.07"/>
</g>
<!-- &#45;3&#45;&gt;12 -->
<g id="edge24" class="edge">
<title>&#45;3&#45;&gt;12</title>
<path fill="none" stroke="red" stroke-width="0.32" d="M766.9,-139.35C769.85,-138.21 773.04,-137.12 776.08,-136.35 901.95,-104.35 943.94,-144.51 1066.08,-100.35 1067.24,-99.93 1068.4,-99.45 1069.56,-98.92"/>
<polygon fill="red" stroke="red" stroke-width="0.32" points="1071.02,-102.11 1078.1,-94.24 1067.65,-95.98 1071.02,-102.11"/>
</g>
<!-- &#45;4 -->
<g id="node4" class="node">
<title>&#45;4</title>
<polygon fill="lightgray" stroke="black" points="808.83,-154.85 785.33,-154.85 785.33,-136.35 808.83,-136.35 808.83,-154.85"/>
<text text-anchor="middle" x="797.08" y="-142.3" font-family="Times,serif" font-size="9.00">&#45;4</text>
</g>
<!-- &#45;4&#45;&gt;0 -->
<g id="edge120" class="edge">
<title>&#45;4&#45;&gt;0</title>
<path fill="none" stroke="red" stroke-width="0.17" d="M784.84,-139.07C782.01,-138 778.98,-137 776.08,-136.35 721.54,-123.98 312.18,-141.28 274.08,-100.35 263.37,-88.85 263.31,-76.44 274.08,-64.99 319.16,-17.08 801.81,-47.04 865.08,-28.99 866.47,-28.59 867.87,-28.11 869.26,-27.56"/>
<polygon fill="red" stroke="red" stroke-width="0.17" points="870.57,-30.82 878.07,-23.34 867.54,-24.51 870.57,-30.82"/>
</g>
<!-- &#45;4&#45;&gt;1 -->
<g id="edge121" class="edge">
<title>&#45;4&#45;&gt;1</title>
<path fill="none" stroke="red" stroke-width="0.25" d="M785.06,-139.01C766.35,-130.03 731.7,-112.19 725.08,-100.35 717.41,-86.63 714.76,-76.84 725.08,-64.99 763.39,-21.01 929.64,-47.13 985.08,-28.99 986.45,-28.54 987.84,-28.02 989.23,-27.44"/>
<polygon fill="red" stroke="red" stroke-width="0.25" points="990.57,-30.68 998.01,-23.14 987.49,-24.39 990.57,-30.68"/>
</g>
<!-- &#45;4&#45;&gt;2 -->
<g id="edge122" class="edge">
<title>&#45;4&#45;&gt;2</title>
<path fill="none" stroke="green" stroke-width="0.34" d="M785.27,-139.31C782.31,-138.17 779.12,-137.09 776.08,-136.35 700.1,-117.88 478.46,-158.39 426.08,-100.35 415.55,-88.68 415.38,-76.5 426.08,-64.99 463,-25.24 859.61,-38.24 913.08,-28.99 921.64,-27.51 930.86,-25.17 938.97,-22.86"/>
<polygon fill="green" stroke="green" stroke-width="0.34" points="939.93,-26.22 948.51,-20 937.93,-19.52 939.93,-26.22"/>
</g>
<!-- &#45;4&#45;&gt;3 -->
<g id="edge123" class="edge">
<title>&#45;4&#45;&gt;3</title>
<path fill="none" stroke="red" stroke-width="0.31" d="M784.84,-139.05C782.01,-137.98 778.98,-136.99 776.08,-136.35 713.26,-122.41 242.14,-147.24 198.08,-100.35 187.32,-88.9 187.29,-76.42 198.08,-64.99 245.44,-14.8 751.86,-48.4 818.08,-28.99 819.26,-28.64 820.46,-28.23 821.64,-27.76"/>
<polygon fill="red" stroke="red" stroke-width="0.31" points="822.91,-31.04 830.34,-23.49 819.82,-24.75 822.91,-31.04"/>
</g>
<!-- &#45;4&#45;&gt;4 -->
<g id="edge124" class="edge">
<title>&#45;4&#45;&gt;4</title>
<path fill="none" stroke="red" stroke-width="0.38" d="M784.84,-139.04C782.02,-137.97 778.98,-136.99 776.08,-136.35 709.11,-121.63 207.12,-150.22 160.08,-100.35 149.29,-88.92 149.41,-76.53 160.08,-64.99 202.22,-19.43 658.82,-15.72 770.53,-15.49"/>
<polygon fill="red" stroke="red" stroke-width="0.38" points="770.24,-18.99 780.23,-15.48 770.23,-11.99 770.24,-18.99"/>
</g>
<!-- &#45;4&#45;&gt;5 -->
<g id="edge25" class="edge">
<title>&#45;4&#45;&gt;5</title>
<path fill="none" stroke="red" stroke-width="0.18" d="M790.06,-135.87C782.99,-127.08 771.87,-113.25 762.85,-102.03"/>
<polygon fill="red" stroke="red" stroke-width="0.18" points="765.73,-100.04 756.74,-94.44 760.28,-104.42 765.73,-100.04"/>
</g>
<!-- &#45;4&#45;&gt;6 -->
<g id="edge26" class="edge">
<title>&#45;4&#45;&gt;6</title>
<path fill="none" stroke="green" stroke-width="0.25" d="M796.79,-135.87C796.55,-128.44 796.18,-117.43 795.86,-107.42"/>
<polygon fill="green" stroke="green" stroke-width="0.25" points="799.36,-107.44 795.53,-97.56 792.36,-107.67 799.36,-107.44"/>
</g>
<!-- &#45;4&#45;&gt;7 -->
<g id="edge27" class="edge">
<title>&#45;4&#45;&gt;7</title>
<path fill="none" stroke="red" stroke-width="0.29" d="M803.52,-135.87C809.88,-127.27 819.79,-113.84 827.97,-102.76"/>
<polygon fill="red" stroke="red" stroke-width="0.29" points="830.68,-104.99 833.81,-94.87 825.05,-100.83 830.68,-104.99"/>
</g>
<!-- &#45;4&#45;&gt;8 -->
<g id="edge28" class="edge">
<title>&#45;4&#45;&gt;8</title>
<path fill="none" stroke="red" stroke-width="0.17" d="M809.19,-136.87C822.84,-128.13 845.68,-113.4 865.08,-100.35 866.47,-99.41 867.9,-98.44 869.33,-97.46"/>
<polygon fill="red" stroke="red" stroke-width="0.17" points="871.17,-100.45 877.41,-91.88 867.19,-94.69 871.17,-100.45"/>
</g>
<!-- &#45;4&#45;&gt;9 -->
<g id="edge29" class="edge">
<title>&#45;4&#45;&gt;9</title>
<path fill="none" stroke="red" stroke-width="0.33" d="M809.23,-140.34C834.8,-131.31 893.36,-110.26 912.08,-100.35 913.56,-99.56 915.05,-98.7 916.54,-97.8"/>
<polygon fill="red" stroke="red" stroke-width="0.33" points="918.3,-100.83 924.71,-92.4 914.44,-94.99 918.3,-100.83"/>
</g>
<!-- &#45;4&#45;&gt;10 -->
<g id="edge30" class="edge">
<title>&#45;4&#45;&gt;10</title>
<path fill="none" stroke="red" stroke-width="0.13" d="M809.23,-140.22C813.01,-138.91 817.2,-137.52 821.08,-136.35 881.76,-118.03 900.8,-125.28 959.08,-100.35 960.41,-99.78 961.75,-99.15 963.08,-98.48"/>
<polygon fill="red" stroke="red" stroke-width="0.13" points="964.64,-101.62 971.65,-93.67 961.22,-95.51 964.64,-101.62"/>
</g>
<!-- &#45;4&#45;&gt;11 -->
<g id="edge31" class="edge">
<title>&#45;4&#45;&gt;11</title>
<path fill="none" stroke="red" stroke-width="0.17" d="M809.18,-140.05C812.96,-138.74 817.16,-137.38 821.08,-136.35 905.02,-114.18 932.38,-132.38 1013.08,-100.35 1014.23,-99.89 1015.38,-99.38 1016.53,-98.83"/>
<polygon fill="red" stroke="red" stroke-width="0.17" points="1018.02,-102 1025.04,-94.06 1014.6,-95.9 1018.02,-102"/>
</g>
<!-- &#45;4&#45;&gt;12 -->
<g id="edge32" class="edge">
<title>&#45;4&#45;&gt;12</title>
<path fill="none" stroke="green" stroke-width="0.14" d="M809.16,-139.96C812.93,-138.64 817.14,-137.3 821.08,-136.35 928.02,-110.35 963,-138.92 1066.08,-100.35 1067.23,-99.91 1068.4,-99.42 1069.55,-98.89"/>
<polygon fill="green" stroke="green" stroke-width="0.14" points="1071.02,-102.07 1078.08,-94.17 1067.63,-95.95 1071.02,-102.07"/>
</g>
<!-- &#45;5 -->
<g id="node5" class="node">
<title>&#45;5</title>
<polygon fill="lightgray" stroke="black" points="997.83,-154.85 974.33,-154.85 974.33,-136.35 997.83,-136.35 997.83,-154.85"/>
<text text-anchor="middle" x="986.08" y="-142.3" font-family="Times,serif" font-size="9.00">&#45;5</text>
</g>
<!-- &#45;5&#45;&gt;0 -->
<g id="edge125" class="edge">
<title>&#45;5&#45;&gt;0</title>
<path fill="none" stroke="red" stroke-width="0.21" d="M998.23,-140.67C1002.59,-139.28 1007.55,-137.72 1012.08,-136.35 1066.99,-119.67 1101.62,-146.23 1136.08,-100.35 1145.51,-87.78 1146.14,-77.06 1136.08,-64.99 1107.58,-30.81 982.46,-38.91 939.08,-28.99 930.61,-27.06 921.41,-24.61 913.29,-22.34"/>
<polygon fill="red" stroke="red" stroke-width="0.21" points="914.3,-18.99 903.72,-19.6 912.37,-25.72 914.3,-18.99"/>
</g>
<!-- &#45;5&#45;&gt;1 -->
<g id="edge126" class="edge">
<title>&#45;5&#45;&gt;1</title>
<path fill="none" stroke="green" stroke-width="0.25" d="M998.08,-140.07C1002.43,-138.63 1007.42,-137.18 1012.08,-136.35 1093.97,-121.64 1702.67,-160.58 1760.08,-100.35 1770.92,-88.97 1770.82,-76.46 1760.08,-64.99 1709.44,-10.9 1158.28,-13.83 1034.61,-15.18"/>
<polygon fill="green" stroke="green" stroke-width="0.25" points="1034.87,-11.68 1024.91,-15.29 1034.95,-18.67 1034.87,-11.68"/>
</g>
<!-- &#45;5&#45;&gt;2 -->
<g id="edge127" class="edge">
<title>&#45;5&#45;&gt;2</title>
<path fill="none" stroke="green" stroke-width="0.16" d="M998.09,-140.11C1002.44,-138.67 1007.42,-137.22 1012.08,-136.35 1073.14,-124.87 1527.58,-145.67 1570.08,-100.35 1580.82,-88.88 1580.84,-76.44 1570.08,-64.99 1525.62,-17.71 1049.48,-46.82 987.08,-28.99 985.68,-28.59 984.28,-28.11 982.89,-27.56"/>
<polygon fill="green" stroke="green" stroke-width="0.16" points="984.61,-24.51 974.08,-23.34 981.59,-30.82 984.61,-24.51"/>
</g>
<!-- &#45;5&#45;&gt;3 -->
<g id="edge128" class="edge">
<title>&#45;5&#45;&gt;3</title>
<path fill="none" stroke="red" stroke-width="0.4" d="M998.25,-140.65C1030.93,-130.04 1118.15,-101.63 1119.08,-100.35 1128.27,-87.6 1129.37,-76.86 1119.08,-64.99 1082.01,-22.26 920.8,-46.7 867.08,-28.99 865.7,-28.54 864.31,-28.01 862.93,-27.43"/>
<polygon fill="red" stroke="red" stroke-width="0.4" points="864.67,-24.39 854.15,-23.12 861.59,-30.67 864.67,-24.39"/>
</g>
<!-- &#45;5&#45;&gt;4 -->
<g id="edge129" class="edge">
<title>&#45;5&#45;&gt;4</title>
<path fill="none" stroke="red" stroke-width="0.54" d="M974.03,-140.81C968.85,-139.27 962.7,-137.58 957.08,-136.35 906.11,-125.19 759.02,-139.97 725.08,-100.35 714.85,-88.41 717.85,-78.95 725.08,-64.99 734.97,-45.88 756.03,-32.56 772.47,-24.6"/>
<polygon fill="red" stroke="red" stroke-width="0.54" points="773.83,-27.82 781.51,-20.52 770.95,-21.44 773.83,-27.82"/>
</g>
<!-- &#45;5&#45;&gt;5 -->
<g id="edge33" class="edge">
<title>&#45;5&#45;&gt;5</title>
<path fill="none" stroke="red" stroke-width="0.48" d="M974,-140.91C968.82,-139.4 962.68,-137.69 957.08,-136.35 875.61,-116.87 849.24,-132.95 772.08,-100.35 770.32,-99.61 768.57,-98.72 766.85,-97.76"/>
<polygon fill="red" stroke="red" stroke-width="0.48" points="769.04,-95.01 758.74,-92.5 765.23,-100.88 769.04,-95.01"/>
</g>
<!-- &#45;5&#45;&gt;6 -->
<g id="edge34" class="edge">
<title>&#45;5&#45;&gt;6</title>
<path fill="none" stroke="green" stroke-width="0.2" d="M973.96,-141.09C968.77,-139.6 962.63,-137.86 957.08,-136.35 895.92,-119.67 876.66,-126.84 819.08,-100.35 817.35,-99.55 815.61,-98.63 813.9,-97.64"/>
<polygon fill="green" stroke="green" stroke-width="0.2" points="816.1,-94.89 805.82,-92.34 812.26,-100.75 816.1,-94.89"/>
</g>
<!-- &#45;5&#45;&gt;7 -->
<g id="edge35" class="edge">
<title>&#45;5&#45;&gt;7</title>
<path fill="none" stroke="red" stroke-width="0.52" d="M974.07,-141.28C951.98,-134.93 903.69,-119.94 866.08,-100.35 864.59,-99.57 863.09,-98.72 861.6,-97.83"/>
<polygon fill="red" stroke="red" stroke-width="0.52" points="863.7,-95.01 853.42,-92.43 859.84,-100.86 863.7,-95.01"/>
</g>
<!-- &#45;5&#45;&gt;8 -->
<g id="edge36" class="edge">
<title>&#45;5&#45;&gt;8</title>
<path fill="none" stroke="red" stroke-width="0.18" d="M974.05,-137.62C959.46,-129.08 934.2,-114.07 913.08,-100.35 911.67,-99.43 910.23,-98.48 908.79,-97.51"/>
<polygon fill="red" stroke="red" stroke-width="0.18" points="910.92,-94.73 900.7,-91.96 906.96,-100.5 910.92,-94.73"/>
</g>
<!-- &#45;5&#45;&gt;9 -->
<g id="edge37" class="edge">
<title>&#45;5&#45;&gt;9</title>
<path fill="none" stroke="green" stroke-width="0.18" d="M978.91,-135.87C971.7,-127.08 960.35,-113.25 951.15,-102.03"/>
<polygon fill="green" stroke="green" stroke-width="0.18" points="953.96,-99.95 944.91,-94.44 948.55,-104.39 953.96,-99.95"/>
</g>
<!-- &#45;5&#45;&gt;10 -->
<g id="edge38" class="edge">
<title>&#45;5&#45;&gt;10</title>
<path fill="none" stroke="red" stroke-width="0.15" d="M986.08,-135.87C986.08,-129.17 986.08,-119.56 986.08,-110.4"/>
<polygon fill="red" stroke="red" stroke-width="0.15" points="989.58,-110.43 986.08,-100.43 982.58,-110.43 989.58,-110.43"/>
</g>
<!-- &#45;5&#45;&gt;11 -->
<g id="edge39" class="edge">
<title>&#45;5&#45;&gt;11</title>
<path fill="none" stroke="green" stroke-width="0.23" d="M993.67,-135.87C1000.86,-127.61 1011.91,-114.9 1021.32,-104.09"/>
<polygon fill="green" stroke="green" stroke-width="0.23" points="1023.87,-106.48 1027.79,-96.64 1018.59,-101.89 1023.87,-106.48"/>
</g>
<!-- &#45;5&#45;&gt;12 -->
<g id="edge40" class="edge">
<title>&#45;5&#45;&gt;12</title>
<path fill="none" stroke="red" stroke-width="0.43" d="M998.14,-138.24C1013.92,-129.85 1042.36,-114.49 1066.08,-100.35 1067.14,-99.71 1068.22,-99.06 1069.31,-98.39"/>
<polygon fill="red" stroke="red" stroke-width="0.43" points="1070.99,-101.47 1077.6,-93.19 1067.27,-95.54 1070.99,-101.47"/>
</g>
<!-- &#45;6 -->
<g id="node6" class="node">
<title>&#45;6</title>
<polygon fill="lightgray" stroke="black" points="900.83,-154.85 877.33,-154.85 877.33,-136.35 900.83,-136.35 900.83,-154.85"/>
<text text-anchor="middle" x="889.08" y="-142.3" font-family="Times,serif" font-size="9.00">&#45;6</text>
</g>
<!-- &#45;6&#45;&gt;0 -->
<g id="edge130" class="edge">
<title>&#45;6&#45;&gt;0</title>
<path fill="none" stroke="green" stroke-width="0.18" d="M876.95,-140.6C872.59,-139.21 867.63,-137.66 863.08,-136.35 802.18,-118.76 763.83,-150.51 725.08,-100.35 715.47,-87.91 715.45,-77.41 725.08,-64.99 764.44,-14.22 805.26,-52.42 865.08,-28.99 866.43,-28.46 867.79,-27.88 869.16,-27.26"/>
<polygon fill="green" stroke="green" stroke-width="0.18" points="870.56,-30.47 877.9,-22.84 867.4,-24.23 870.56,-30.47"/>
</g>
<!-- &#45;6&#45;&gt;1 -->
<g id="edge131" class="edge">
<title>&#45;6&#45;&gt;1</title>
<path fill="none" stroke="green" stroke-width="0.13" d="M901.1,-140.19C905.45,-138.75 910.44,-137.29 915.08,-136.35 1000.16,-119.12 1245.59,-164.5 1304.08,-100.35 1381.4,-15.54 1118.86,-13.44 1034.99,-14.85"/>
<polygon fill="green" stroke="green" stroke-width="0.13" points="1034.97,-11.35 1025.04,-15.05 1035.11,-18.35 1034.97,-11.35"/>
</g>
<!-- &#45;6&#45;&gt;2 -->
<g id="edge132" class="edge">
<title>&#45;6&#45;&gt;2</title>
<path fill="none" stroke="red" stroke-width="0.19" d="M901.15,-140.4C905.5,-138.98 910.48,-137.48 915.08,-136.35 959.78,-125.36 1089.49,-135.61 1119.08,-100.35 1129.18,-88.31 1128.61,-77.48 1119.08,-64.99 1082.17,-16.67 1043.53,-51.58 987.08,-28.99 985.73,-28.45 984.37,-27.86 983,-27.23"/>
<polygon fill="red" stroke="red" stroke-width="0.19" points="984.77,-24.21 974.27,-22.8 981.6,-30.45 984.77,-24.21"/>
</g>
<!-- &#45;6&#45;&gt;3 -->
<g id="edge133" class="edge">
<title>&#45;6&#45;&gt;3</title>
<path fill="none" stroke="red" stroke-width="0.18" d="M876.96,-140.56C872.6,-139.16 867.64,-137.62 863.08,-136.35 797.46,-118.03 756.22,-153.88 714.08,-100.35 704.36,-88 704.96,-77.79 714.08,-64.99 742.45,-25.15 773.47,-49.06 818.08,-28.99 819.2,-28.48 820.35,-27.94 821.5,-27.38"/>
<polygon fill="red" stroke="red" stroke-width="0.18" points="822.91,-30.59 830.09,-22.79 819.62,-24.41 822.91,-30.59"/>
</g>
<!-- &#45;6&#45;&gt;4 -->
<g id="edge134" class="edge">
<title>&#45;6&#45;&gt;4</title>
<path fill="none" stroke="green" stroke-width="0.14" d="M876.97,-140.52C872.62,-139.11 867.65,-137.58 863.08,-136.35 792.72,-117.31 748.61,-157.26 703.08,-100.35 693.26,-88.08 695.02,-78.48 703.08,-64.99 717.69,-40.53 749.02,-27.45 771.04,-21"/>
<polygon fill="green" stroke="green" stroke-width="0.14" points="771.95,-24.38 780.7,-18.41 770.14,-17.62 771.95,-24.38"/>
</g>
<!-- &#45;6&#45;&gt;5 -->
<g id="edge41" class="edge">
<title>&#45;6&#45;&gt;5</title>
<path fill="none" stroke="green" stroke-width="0.35" d="M877.1,-140.49C851.29,-131.57 791.2,-110.41 772.08,-100.35 770.59,-99.57 769.1,-98.71 767.61,-97.81"/>
<polygon fill="green" stroke="green" stroke-width="0.35" points="769.71,-95 759.43,-92.41 765.85,-100.84 769.71,-95"/>
</g>
<!-- &#45;6&#45;&gt;6 -->
<g id="edge42" class="edge">
<title>&#45;6&#45;&gt;6</title>
<path fill="none" stroke="green" stroke-width="0.52" d="M876.83,-137.08C862.78,-128.4 839.09,-113.62 819.08,-100.35 817.68,-99.42 816.25,-98.46 814.81,-97.48"/>
<polygon fill="green" stroke="green" stroke-width="0.52" points="816.95,-94.7 806.73,-91.92 812.98,-100.47 816.95,-94.7"/>
</g>
<!-- &#45;6&#45;&gt;7 -->
<g id="edge43" class="edge">
<title>&#45;6&#45;&gt;7</title>
<path fill="none" stroke="green" stroke-width="0.11" d="M882.34,-135.87C875.71,-127.27 865.35,-113.84 856.81,-102.76"/>
<polygon fill="green" stroke="green" stroke-width="0.11" points="859.59,-100.65 850.71,-94.87 854.05,-104.92 859.59,-100.65"/>
</g>
<!-- &#45;6&#45;&gt;8 -->
<g id="edge44" class="edge">
<title>&#45;6&#45;&gt;8</title>
<path fill="none" stroke="green" stroke-width="0.26" d="M889.08,-135.87C889.08,-128.44 889.08,-117.43 889.08,-107.42"/>
<polygon fill="green" stroke="green" stroke-width="0.26" points="892.58,-107.56 889.08,-97.56 885.58,-107.56 892.58,-107.56"/>
</g>
<!-- &#45;6&#45;&gt;9 -->
<g id="edge45" class="edge">
<title>&#45;6&#45;&gt;9</title>
<path fill="none" stroke="green" stroke-width="0.41" d="M895.81,-135.87C902.45,-127.27 912.8,-113.84 921.35,-102.76"/>
<polygon fill="green" stroke="green" stroke-width="0.41" points="924.1,-104.92 927.44,-94.87 918.56,-100.65 924.1,-104.92"/>
</g>
<!-- &#45;6&#45;&gt;10 -->
<g id="edge46" class="edge">
<title>&#45;6&#45;&gt;10</title>
<path fill="none" stroke="green" stroke-width="0.27" d="M900.97,-137.13C916.33,-127.48 943.38,-110.49 962.87,-98.24"/>
<polygon fill="green" stroke="green" stroke-width="0.27" points="964.62,-101.28 971.23,-93 960.9,-95.35 964.62,-101.28"/>
</g>
<!-- &#45;6&#45;&gt;11 -->
<g id="edge47" class="edge">
<title>&#45;6&#45;&gt;11</title>
<path fill="none" stroke="red" stroke-width="0.24" d="M900.93,-140.75C927.77,-131.98 992.46,-110.47 1013.08,-100.35 1014.19,-99.8 1015.31,-99.22 1016.43,-98.61"/>
<polygon fill="red" stroke="red" stroke-width="0.24" points="1018.02,-101.73 1024.84,-93.62 1014.45,-95.71 1018.02,-101.73"/>
</g>
<!-- &#45;6&#45;&gt;12 -->
<g id="edge48" class="edge">
<title>&#45;6&#45;&gt;12</title>
<path fill="none" stroke="green" stroke-width="0.2" d="M901.19,-140.55C905.55,-139.15 910.51,-137.61 915.08,-136.35 981.56,-117.9 1002.59,-127.35 1066.08,-100.35 1067.21,-99.86 1068.36,-99.33 1069.5,-98.76"/>
<polygon fill="green" stroke="green" stroke-width="0.2" points="1071.03,-101.92 1077.98,-93.92 1067.56,-95.84 1071.03,-101.92"/>
</g>
<!-- &#45;7 -->
<g id="node7" class="node">
<title>&#45;7</title>
<polygon fill="lightgray" stroke="black" points="1044.83,-154.85 1021.33,-154.85 1021.33,-136.35 1044.83,-136.35 1044.83,-154.85"/>
<text text-anchor="middle" x="1033.08" y="-142.3" font-family="Times,serif" font-size="9.00">&#45;7</text>
</g>
<!-- &#45;7&#45;&gt;0 -->
<g id="edge135" class="edge">
<title>&#45;7&#45;&gt;0</title>
<path fill="none" stroke="red" stroke-width="0.19" d="M1045.05,-139.83C1048,-138.68 1051.15,-137.46 1054.08,-136.35 1097.87,-119.79 1126.22,-138.69 1153.08,-100.35 1162.09,-87.48 1163.22,-76.99 1153.08,-64.99 1121.93,-28.17 986.16,-39.41 939.08,-28.99 930.6,-27.12 921.39,-24.69 913.28,-22.41"/>
<polygon fill="red" stroke="red" stroke-width="0.19" points="914.29,-19.06 903.71,-19.65 912.35,-25.78 914.29,-19.06"/>
</g>
<!-- &#45;7&#45;&gt;1 -->
<g id="edge136" class="edge">
<title>&#45;7&#45;&gt;1</title>
<path fill="none" stroke="green" stroke-width="0.57" d="M1045.31,-139.02C1048.13,-137.95 1051.17,-136.97 1054.08,-136.35 1135,-118.99 1740.99,-160.27 1798.08,-100.35 1808.92,-88.97 1808.83,-76.45 1798.08,-64.99 1771.29,-36.47 1165.42,-19.45 1034.76,-16.11"/>
<polygon fill="green" stroke="green" stroke-width="0.57" points="1034.98,-12.61 1024.89,-15.86 1034.8,-19.61 1034.98,-12.61"/>
</g>
<!-- &#45;7&#45;&gt;2 -->
<g id="edge137" class="edge">
<title>&#45;7&#45;&gt;2</title>
<path fill="none" stroke="red" stroke-width="0.22" d="M1045.32,-139.06C1048.14,-137.99 1051.17,-137 1054.08,-136.35 1112.1,-123.32 1547.47,-143.79 1588.08,-100.35 1598.81,-88.87 1598.85,-76.43 1588.08,-64.99 1542.21,-16.29 1051.42,-47.31 987.08,-28.99 985.68,-28.59 984.28,-28.11 982.89,-27.57"/>
<polygon fill="red" stroke="red" stroke-width="0.22" points="984.61,-24.51 974.08,-23.34 981.59,-30.82 984.61,-24.51"/>
</g>
<!-- &#45;7&#45;&gt;3 -->
<g id="edge138" class="edge">
<title>&#45;7&#45;&gt;3</title>
<path fill="none" stroke="green" stroke-width="0.25" d="M1045.32,-139.75C1072.04,-129.13 1133.4,-104.41 1136.08,-100.35 1144.72,-87.22 1146.42,-76.82 1136.08,-64.99 1096.36,-19.6 924.44,-47.62 867.08,-28.99 865.7,-28.54 864.31,-28.02 862.92,-27.45"/>
<polygon fill="green" stroke="green" stroke-width="0.25" points="864.66,-24.4 854.14,-23.15 861.59,-30.69 864.66,-24.4"/>
</g>
<!-- &#45;7&#45;&gt;4 -->
<g id="edge139" class="edge">
<title>&#45;7&#45;&gt;4</title>
<path fill="none" stroke="green" stroke-width="0.22" d="M1045.02,-139.29C1067.63,-129.13 1114.84,-107.3 1119.08,-100.35 1127.26,-86.93 1129.5,-76.75 1119.08,-64.99 1074.52,-14.76 882.9,-49.85 819.08,-28.99 817.9,-28.61 816.72,-28.16 815.54,-27.67"/>
<polygon fill="green" stroke="green" stroke-width="0.22" points="817.37,-24.68 806.86,-23.33 814.24,-30.94 817.37,-24.68"/>
</g>
<!-- &#45;7&#45;&gt;5 -->
<g id="edge49" class="edge">
<title>&#45;7&#45;&gt;5</title>
<path fill="none" stroke="green" stroke-width="0.2" d="M1021.02,-140.34C1016.66,-138.92 1011.69,-137.42 1007.08,-136.35 904.19,-112.3 870.22,-139.51 772.08,-100.35 770.31,-99.64 768.54,-98.79 766.82,-97.84"/>
<polygon fill="green" stroke="green" stroke-width="0.2" points="769,-95.08 758.7,-92.61 765.21,-100.96 769,-95.08"/>
</g>
<!-- &#45;7&#45;&gt;6 -->
<g id="edge50" class="edge">
<title>&#45;7&#45;&gt;6</title>
<path fill="none" stroke="green" stroke-width="0.34" d="M1020.99,-140.44C1016.64,-139.02 1011.67,-137.51 1007.08,-136.35 924.61,-115.45 897.49,-133.34 819.08,-100.35 817.32,-99.61 815.57,-98.73 813.85,-97.77"/>
<polygon fill="green" stroke="green" stroke-width="0.34" points="816.04,-95.01 805.74,-92.51 812.23,-100.89 816.04,-95.01"/>
</g>
<!-- &#45;7&#45;&gt;7 -->
<g id="edge51" class="edge">
<title>&#45;7&#45;&gt;7</title>
<path fill="none" stroke="green" stroke-width="0.49" d="M1020.95,-140.59C1016.59,-139.19 1011.63,-137.65 1007.08,-136.35 944.89,-118.56 924.9,-127.23 866.08,-100.35 864.35,-99.56 862.61,-98.64 860.9,-97.65"/>
<polygon fill="green" stroke="green" stroke-width="0.49" points="863.09,-94.9 852.81,-92.35 859.26,-100.76 863.09,-94.9"/>
</g>
<!-- &#45;7&#45;&gt;8 -->
<g id="edge52" class="edge">
<title>&#45;7&#45;&gt;8</title>
<path fill="none" stroke="green" stroke-width="0.18" d="M1021.19,-140.64C994.93,-131.84 932.77,-110.61 913.08,-100.35 911.59,-99.57 910.09,-98.72 908.6,-97.83"/>
<polygon fill="green" stroke="green" stroke-width="0.18" points="910.7,-95.01 900.42,-92.43 906.84,-100.86 910.7,-95.01"/>
</g>
<!-- &#45;7&#45;&gt;9 -->
<g id="edge53" class="edge">
<title>&#45;7&#45;&gt;9</title>
<path fill="none" stroke="green" stroke-width="0.11" d="M1021.09,-137.86C1006.28,-129.45 980.44,-114.44 959.08,-100.35 957.84,-99.53 956.58,-98.68 955.32,-97.81"/>
<polygon fill="green" stroke="green" stroke-width="0.11" points="957.35,-94.96 947.17,-92.01 953.29,-100.66 957.35,-94.96"/>
</g>
<!-- &#45;7&#45;&gt;10 -->
<g id="edge54" class="edge">
<title>&#45;7&#45;&gt;10</title>
<path fill="none" stroke="green" stroke-width="0.31" d="M1026.34,-135.87C1020.11,-127.79 1010.6,-115.46 1002.39,-104.82"/>
<polygon fill="green" stroke="green" stroke-width="0.31" points="1005.32,-102.88 996.44,-97.1 999.77,-107.15 1005.32,-102.88"/>
</g>
<!-- &#45;7&#45;&gt;11 -->
<g id="edge55" class="edge">
<title>&#45;7&#45;&gt;11</title>
<path fill="none" stroke="red" stroke-width="0.19" d="M1033.94,-135.87C1034.6,-129.1 1035.56,-119.35 1036.47,-110.1"/>
<polygon fill="red" stroke="red" stroke-width="0.19" points="1039.93,-110.73 1037.43,-100.43 1032.96,-110.04 1039.93,-110.73"/>
</g>
<!-- &#45;7&#45;&gt;12 -->
<g id="edge56" class="edge">
<title>&#45;7&#45;&gt;12</title>
<path fill="none" stroke="green" stroke-width="0.24" d="M1041.53,-135.87C1049.71,-127.42 1062.4,-114.32 1073.01,-103.35"/>
<polygon fill="green" stroke="green" stroke-width="0.24" points="1075.51,-105.81 1079.95,-96.19 1070.48,-100.94 1075.51,-105.81"/>
</g>
<!-- &#45;8 -->
<g id="node8" class="node">
<title>&#45;8</title>
<polygon fill="lightgray" stroke="black" points="1086.83,-154.85 1063.33,-154.85 1063.33,-136.35 1086.83,-136.35 1086.83,-154.85"/>
<text text-anchor="middle" x="1075.08" y="-142.3" font-family="Times,serif" font-size="9.00">&#45;8</text>
</g>
<!-- &#45;8&#45;&gt;0 -->
<g id="edge140" class="edge">
<title>&#45;8&#45;&gt;0</title>
<path fill="none" stroke="red" stroke-width="0.5" d="M1087.06,-143.1C1108.17,-139.75 1151.5,-129.5 1170.08,-100.35 1178.52,-87.1 1180.3,-76.93 1170.08,-64.99 1136.29,-25.53 989.87,-39.91 939.08,-28.99 930.58,-27.17 921.38,-24.75 913.26,-22.47"/>
<polygon fill="red" stroke="red" stroke-width="0.5" points="914.28,-19.12 903.7,-19.7 912.33,-25.84 914.28,-19.12"/>
</g>
<!-- &#45;8&#45;&gt;1 -->
<g id="edge141" class="edge">
<title>&#45;8&#45;&gt;1</title>
<path fill="none" stroke="red" stroke-width="0.4" d="M1087.16,-144.34C1180.97,-142.31 1789.98,-128.05 1816.08,-100.35 1826.85,-88.91 1826.84,-76.44 1816.08,-64.99 1788.61,-35.78 1166.4,-19.25 1034.5,-16.06"/>
<polygon fill="red" stroke="red" stroke-width="0.4" points="1034.97,-12.57 1024.89,-15.83 1034.8,-19.57 1034.97,-12.57"/>
</g>
<!-- &#45;8&#45;&gt;2 -->
<g id="edge142" class="edge">
<title>&#45;8&#45;&gt;2</title>
<path fill="none" stroke="green" stroke-width="0.26" d="M1087.24,-144.54C1163.16,-144.09 1569.75,-139.83 1606.08,-100.35 1616.72,-88.78 1616.86,-76.42 1606.08,-64.99 1558.8,-14.88 1053.35,-47.8 987.08,-28.99 985.68,-28.6 984.28,-28.11 982.89,-27.57"/>
<polygon fill="green" stroke="green" stroke-width="0.26" points="984.61,-24.51 974.08,-23.35 981.59,-30.83 984.61,-24.51"/>
</g>
<!-- &#45;8&#45;&gt;3 -->
<g id="edge143" class="edge">
<title>&#45;8&#45;&gt;3</title>
<path fill="none" stroke="red" stroke-width="0.1" d="M1087.29,-141.78C1105.41,-136.87 1138.82,-124.83 1153.08,-100.35 1160.98,-86.77 1163.47,-76.78 1153.08,-64.99 1110.7,-16.95 928.08,-48.54 867.08,-28.99 865.7,-28.55 864.3,-28.03 862.92,-27.46"/>
<polygon fill="red" stroke="red" stroke-width="0.1" points="864.66,-24.41 854.14,-23.17 861.59,-30.7 864.66,-24.41"/>
</g>
<!-- &#45;8&#45;&gt;4 -->
<g id="edge144" class="edge">
<title>&#45;8&#45;&gt;4</title>
<path fill="none" stroke="red" stroke-width="0.16" d="M1087.17,-139.91C1101.83,-133.48 1125.85,-120.39 1136.08,-100.35 1143.22,-86.35 1146.54,-76.71 1136.08,-64.99 1088.86,-12.11 886.54,-50.8 819.08,-28.99 817.9,-28.61 816.72,-28.17 815.54,-27.68"/>
<polygon fill="red" stroke="red" stroke-width="0.16" points="817.36,-24.68 806.85,-23.35 814.24,-30.95 817.36,-24.68"/>
</g>
<!-- &#45;8&#45;&gt;5 -->
<g id="edge57" class="edge">
<title>&#45;8&#45;&gt;5</title>
<path fill="none" stroke="red" stroke-width="0.18" d="M1063.25,-139.36C1060.3,-138.22 1057.11,-137.12 1054.08,-136.35 931.67,-105.01 890.01,-145.7 772.08,-100.35 770.3,-99.66 768.53,-98.82 766.8,-97.89"/>
<polygon fill="red" stroke="red" stroke-width="0.18" points="768.98,-95.13 758.68,-92.67 765.2,-101.02 768.98,-95.13"/>
</g>
<!-- &#45;8&#45;&gt;6 -->
<g id="edge58" class="edge">
<title>&#45;8&#45;&gt;6</title>
<path fill="none" stroke="green" stroke-width="0.11" d="M1063.24,-139.42C1060.29,-138.27 1057.1,-137.16 1054.08,-136.35 952.05,-108.86 917.22,-139.51 819.08,-100.35 817.31,-99.64 815.54,-98.79 813.82,-97.84"/>
<polygon fill="green" stroke="green" stroke-width="0.11" points="816,-95.08 805.7,-92.61 812.21,-100.96 816,-95.08"/>
</g>
<!-- &#45;8&#45;&gt;7 -->
<g id="edge59" class="edge">
<title>&#45;8&#45;&gt;7</title>
<path fill="none" stroke="green" stroke-width="0.24" d="M1063.22,-139.5C1060.27,-138.35 1057.09,-137.22 1054.08,-136.35 972.36,-112.69 944.49,-133.34 866.08,-100.35 864.32,-99.61 862.57,-98.73 860.85,-97.77"/>
<polygon fill="green" stroke="green" stroke-width="0.24" points="863.04,-95.01 852.74,-92.51 859.23,-100.89 863.04,-95.01"/>
</g>
<!-- &#45;8&#45;&gt;8 -->
<g id="edge60" class="edge">
<title>&#45;8&#45;&gt;8</title>
<path fill="none" stroke="red" stroke-width="0.44" d="M1063.18,-139.62C1060.23,-138.48 1057.06,-137.31 1054.08,-136.35 992.53,-116.48 971.9,-127.23 913.08,-100.35 911.35,-99.56 909.61,-98.64 907.9,-97.65"/>
<polygon fill="red" stroke="red" stroke-width="0.44" points="910.09,-94.9 899.81,-92.35 906.26,-100.76 910.09,-94.9"/>
</g>
<!-- &#45;8&#45;&gt;9 -->
<g id="edge61" class="edge">
<title>&#45;8&#45;&gt;9</title>
<path fill="none" stroke="red" stroke-width="0.3" d="M1063.09,-139.86C1060.15,-138.7 1057,-137.47 1054.08,-136.35 1011.95,-120.09 998.81,-121.79 959.08,-100.35 957.77,-99.64 956.46,-98.88 955.16,-98.07"/>
<polygon fill="red" stroke="red" stroke-width="0.3" points="957.15,-95.19 946.92,-92.43 953.2,-100.97 957.15,-95.19"/>
</g>
<!-- &#45;8&#45;&gt;10 -->
<g id="edge62" class="edge">
<title>&#45;8&#45;&gt;10</title>
<path fill="none" stroke="red" stroke-width="0.26" d="M1063.07,-136.38C1049.13,-126.83 1025.82,-110.88 1008.5,-99.02"/>
<polygon fill="red" stroke="red" stroke-width="0.26" points="1010.77,-96.33 1000.54,-93.57 1006.81,-102.11 1010.77,-96.33"/>
</g>
<!-- &#45;8&#45;&gt;11 -->
<g id="edge63" class="edge">
<title>&#45;8&#45;&gt;11</title>
<path fill="none" stroke="green" stroke-width="0.13" d="M1069.92,-135.87C1065.47,-128.33 1058.83,-117.1 1052.85,-106.98"/>
<polygon fill="green" stroke="green" stroke-width="0.13" points="1055.94,-105.33 1047.84,-98.5 1049.91,-108.89 1055.94,-105.33"/>
</g>
<!-- &#45;8&#45;&gt;12 -->
<g id="edge64" class="edge">
<title>&#45;8&#45;&gt;12</title>
<path fill="none" stroke="green" stroke-width="0.13" d="M1077.51,-135.87C1079.45,-128.93 1082.26,-118.86 1084.89,-109.41"/>
<polygon fill="green" stroke="green" stroke-width="0.13" points="1088.22,-110.52 1087.54,-99.94 1081.48,-108.64 1088.22,-110.52"/>
</g>
<!-- 5&#45;&gt;0 -->
<g id="edge65" class="edge">
<title>5&#45;&gt;0</title>
<path fill="none" stroke="red" stroke-width="0.37" d="M759.44,-72.95C763.32,-70.19 767.78,-67.28 772.08,-64.99 811.22,-44.2 824.83,-47.56 865.08,-28.99 866.36,-28.4 867.68,-27.77 869,-27.11"/>
<polygon fill="red" stroke="red" stroke-width="0.37" points="870.26,-30.4 877.52,-22.68 867.03,-24.19 870.26,-30.4"/>
</g>
<!-- 5&#45;&gt;1 -->
<g id="edge66" class="edge">
<title>5&#45;&gt;1</title>
<path fill="none" stroke="green" stroke-width="0.27" d="M758.72,-72.77C762.69,-69.87 767.38,-66.91 772.08,-64.99 860.97,-28.72 894.29,-60.21 985.08,-28.99 986.45,-28.52 987.83,-27.98 989.21,-27.39"/>
<polygon fill="green" stroke="green" stroke-width="0.27" points="990.57,-30.63 997.98,-23.06 987.46,-24.35 990.57,-30.63"/>
</g>
<!-- 5&#45;&gt;2 -->
<g id="edge67" class="edge">
<title>5&#45;&gt;2</title>
<path fill="none" stroke="green" stroke-width="0.13" d="M758.81,-72.99C762.79,-70.11 767.46,-67.1 772.08,-64.99 830.9,-38.11 850.56,-45.58 913.08,-28.99 921.35,-26.8 930.39,-24.33 938.43,-22.1"/>
<polygon fill="green" stroke="green" stroke-width="0.13" points="939.24,-25.51 947.94,-19.46 937.37,-18.77 939.24,-25.51"/>
</g>
<!-- 5&#45;&gt;3 -->
<g id="edge68" class="edge">
<title>5&#45;&gt;3</title>
<path fill="none" stroke="red" stroke-width="0.11" d="M759.6,-73.55C775.25,-62.54 803.43,-42.7 822.44,-29.32"/>
<polygon fill="red" stroke="red" stroke-width="0.11" points="824.29,-32.29 830.46,-23.68 820.26,-26.57 824.29,-32.29"/>
</g>
<!-- 5&#45;&gt;4 -->
<g id="edge69" class="edge">
<title>5&#45;&gt;4</title>
<path fill="none" stroke="green" stroke-width="0.17" d="M756.26,-70.14C763.14,-60.46 773.11,-46.43 781.22,-35"/>
<polygon fill="green" stroke="green" stroke-width="0.17" points="784.05,-37.07 786.98,-26.89 778.34,-33.02 784.05,-37.07"/>
</g>
<!-- 6&#45;&gt;0 -->
<g id="edge70" class="edge">
<title>6&#45;&gt;0</title>
<path fill="none" stroke="red" stroke-width="0.11" d="M806.73,-73.55C822.54,-62.54 851.02,-42.7 870.23,-29.32"/>
<polygon fill="red" stroke="red" stroke-width="0.11" points="872.13,-32.26 878.33,-23.68 868.13,-26.52 872.13,-32.26"/>
</g>
<!-- 6&#45;&gt;1 -->
<g id="edge71" class="edge">
<title>6&#45;&gt;1</title>
<path fill="none" stroke="green" stroke-width="0.14" d="M805.77,-72.89C809.74,-70 814.42,-67.02 819.08,-64.99 888.3,-34.87 914.27,-55.18 985.08,-28.99 986.44,-28.49 987.81,-27.92 989.18,-27.32"/>
<polygon fill="green" stroke="green" stroke-width="0.14" points="990.56,-30.54 997.94,-22.94 987.43,-24.28 990.56,-30.54"/>
</g>
<!-- 6&#45;&gt;2 -->
<g id="edge72" class="edge">
<title>6&#45;&gt;2</title>
<path fill="none" stroke="green" stroke-width="0.31" d="M806.39,-72.85C810.27,-70.1 814.73,-67.2 819.08,-64.99 840.5,-54.1 904.33,-33.5 939.02,-22.63"/>
<polygon fill="green" stroke="green" stroke-width="0.31" points="939.87,-26.03 948.37,-19.71 937.78,-19.35 939.87,-26.03"/>
</g>
<!-- 6&#45;&gt;3 -->
<g id="edge73" class="edge">
<title>6&#45;&gt;3</title>
<path fill="none" stroke="green" stroke-width="0.34" d="M803.26,-70.14C810.14,-60.46 820.11,-46.43 828.22,-35"/>
<polygon fill="green" stroke="green" stroke-width="0.34" points="831.05,-37.07 833.98,-26.89 825.34,-33.02 831.05,-37.07"/>
</g>
<!-- 6&#45;&gt;4 -->
<g id="edge74" class="edge">
<title>6&#45;&gt;4</title>
<path fill="none" stroke="green" stroke-width="0.42" d="M795.08,-67.96C795.08,-59.62 795.08,-48.74 795.08,-39.06"/>
<polygon fill="green" stroke="green" stroke-width="0.42" points="798.58,-39.19 795.08,-29.19 791.58,-39.19 798.58,-39.19"/>
</g>
<!-- 7&#45;&gt;0 -->
<g id="edge75" class="edge">
<title>7&#45;&gt;0</title>
<path fill="none" stroke="green" stroke-width="0.43" d="M850.22,-70.44C857.36,-60.59 867.91,-46.06 876.35,-34.42"/>
<polygon fill="green" stroke="green" stroke-width="0.43" points="879.02,-36.71 882.05,-26.56 873.35,-32.59 879.02,-36.71"/>
</g>
<!-- 7&#45;&gt;1 -->
<g id="edge76" class="edge">
<title>7&#45;&gt;1</title>
<path fill="none" stroke="green" stroke-width="0.13" d="M852.86,-73.1C856.85,-70.23 861.51,-67.2 866.08,-64.99 915.82,-40.93 934.06,-50.22 985.08,-28.99 986.41,-28.43 987.77,-27.83 989.13,-27.19"/>
<polygon fill="green" stroke="green" stroke-width="0.13" points="990.55,-30.4 997.86,-22.73 987.36,-24.17 990.55,-30.4"/>
</g>
<!-- 7&#45;&gt;2 -->
<g id="edge77" class="edge">
<title>7&#45;&gt;2</title>
<path fill="none" stroke="red" stroke-width="0.22" d="M853.59,-73.21C857.48,-70.48 861.9,-67.5 866.08,-64.99 890.79,-50.12 920.47,-35.25 940.22,-25.75"/>
<polygon fill="red" stroke="red" stroke-width="0.22" points="941.53,-29 949.05,-21.54 938.52,-22.68 941.53,-29"/>
</g>
<!-- 7&#45;&gt;3 -->
<g id="edge78" class="edge">
<title>7&#45;&gt;3</title>
<path fill="none" stroke="green" stroke-width="0.16" d="M842.08,-67.96C842.08,-59.62 842.08,-48.74 842.08,-39.06"/>
<polygon fill="green" stroke="green" stroke-width="0.16" points="845.58,-39.19 842.08,-29.19 838.58,-39.19 845.58,-39.19"/>
</g>
<!-- 7&#45;&gt;4 -->
<g id="edge79" class="edge">
<title>7&#45;&gt;4</title>
<path fill="none" stroke="red" stroke-width="0.18" d="M833.89,-70.14C827.02,-60.46 817.04,-46.43 808.93,-35"/>
<polygon fill="red" stroke="red" stroke-width="0.18" points="811.81,-33.02 803.17,-26.89 806.11,-37.07 811.81,-33.02"/>
</g>
<!-- 8&#45;&gt;0 -->
<g id="edge80" class="edge">
<title>8&#45;&gt;0</title>
<path fill="none" stroke="red" stroke-width="0.12" d="M889.28,-67.96C889.41,-59.62 889.57,-48.74 889.72,-39.06"/>
<polygon fill="red" stroke="red" stroke-width="0.12" points="893.22,-39.24 889.87,-29.19 886.22,-39.14 893.22,-39.24"/>
</g>
<!-- 8&#45;&gt;1 -->
<g id="edge81" class="edge">
<title>8&#45;&gt;1</title>
<path fill="none" stroke="red" stroke-width="0.12" d="M900.57,-73.18C904.47,-70.44 908.89,-67.48 913.08,-64.99 943.85,-46.74 953.33,-45.49 985.08,-28.99 986.33,-28.34 987.63,-27.66 988.93,-26.97"/>
<polygon fill="red" stroke="red" stroke-width="0.12" points="990.23,-30.24 997.4,-22.44 986.93,-24.07 990.23,-30.24"/>
</g>
<!-- 8&#45;&gt;2 -->
<g id="edge82" class="edge">
<title>8&#45;&gt;2</title>
<path fill="none" stroke="red" stroke-width="0.17" d="M899.54,-72.19C911.24,-61.57 930.41,-44.2 944.45,-31.48"/>
<polygon fill="red" stroke="red" stroke-width="0.17" points="946.58,-34.27 951.64,-24.96 941.88,-29.08 946.58,-34.27"/>
</g>
<!-- 8&#45;&gt;3 -->
<g id="edge83" class="edge">
<title>8&#45;&gt;3</title>
<path fill="none" stroke="red" stroke-width="0.12" d="M880.89,-70.14C874.02,-60.46 864.04,-46.43 855.93,-35"/>
<polygon fill="red" stroke="red" stroke-width="0.12" points="858.81,-33.02 850.17,-26.89 853.11,-37.07 858.81,-33.02"/>
</g>
<!-- 8&#45;&gt;4 -->
<g id="edge84" class="edge">
<title>8&#45;&gt;4</title>
<path fill="none" stroke="green" stroke-width="0.42" d="M877.55,-73.55C861.91,-62.54 833.72,-42.7 814.71,-29.32"/>
<polygon fill="green" stroke="green" stroke-width="0.42" points="816.89,-26.57 806.7,-23.68 812.86,-32.29 816.89,-26.57"/>
</g>
<!-- 9&#45;&gt;0 -->
<g id="edge85" class="edge">
<title>9&#45;&gt;0</title>
<path fill="none" stroke="red" stroke-width="0.2" d="M928.06,-70.14C921.34,-60.46 911.58,-46.43 903.64,-35"/>
<polygon fill="red" stroke="red" stroke-width="0.2" points="906.58,-33.1 898,-26.89 900.83,-37.1 906.58,-33.1"/>
</g>
<!-- 9&#45;&gt;1 -->
<g id="edge86" class="edge">
<title>9&#45;&gt;1</title>
<path fill="none" stroke="green" stroke-width="0.39" d="M946.68,-72.19C958.55,-61.57 977.98,-44.2 992.21,-31.48"/>
<polygon fill="green" stroke="green" stroke-width="0.39" points="994.37,-34.23 999.49,-24.96 989.71,-29.02 994.37,-34.23"/>
</g>
<!-- 9&#45;&gt;2 -->
<g id="edge87" class="edge">
<title>9&#45;&gt;2</title>
<path fill="none" stroke="red" stroke-width="0.17" d="M941.21,-68.6C944.67,-59.8 949.31,-47.99 953.34,-37.74"/>
<polygon fill="red" stroke="red" stroke-width="0.17" points="956.55,-39.13 956.95,-28.54 950.04,-36.57 956.55,-39.13"/>
</g>
<!-- 9&#45;&gt;3 -->
<g id="edge88" class="edge">
<title>9&#45;&gt;3</title>
<path fill="none" stroke="green" stroke-width="0.35" d="M924.55,-73.55C908.91,-62.54 880.72,-42.7 861.71,-29.32"/>
<polygon fill="green" stroke="green" stroke-width="0.35" points="863.89,-26.57 853.7,-23.68 859.86,-32.29 863.89,-26.57"/>
</g>
<!-- 9&#45;&gt;4 -->
<g id="edge89" class="edge">
<title>9&#45;&gt;4</title>
<path fill="none" stroke="green" stroke-width="0.32" d="M924.71,-72.95C920.83,-70.19 916.38,-67.28 912.08,-64.99 872.93,-44.2 859.16,-47.9 819.08,-28.99 817.96,-28.46 816.82,-27.9 815.68,-27.33"/>
<polygon fill="green" stroke="green" stroke-width="0.32" points="817.57,-24.37 807.11,-22.71 814.25,-30.53 817.57,-24.37"/>
</g>
<!-- 10&#45;&gt;0 -->
<g id="edge90" class="edge">
<title>10&#45;&gt;0</title>
<path fill="none" stroke="red" stroke-width="0.2" d="M971.91,-71.9C955.52,-60.61 928.43,-41.93 909.94,-29.19"/>
<polygon fill="red" stroke="red" stroke-width="0.2" points="912.1,-26.42 901.88,-23.63 908.13,-32.19 912.1,-26.42"/>
</g>
<!-- 10&#45;&gt;1 -->
<g id="edge91" class="edge">
<title>10&#45;&gt;1</title>
<path fill="none" stroke="green" stroke-width="0.21" d="M991.89,-65.65C994.9,-57.34 998.64,-47.04 1001.93,-37.95"/>
<polygon fill="green" stroke="green" stroke-width="0.21" points="1005.17,-39.29 1005.29,-28.7 998.59,-36.91 1005.17,-39.29"/>
</g>
<!-- 10&#45;&gt;2 -->
<g id="edge92" class="edge">
<title>10&#45;&gt;2</title>
<path fill="none" stroke="green" stroke-width="0.28" d="M980.27,-65.65C977.25,-57.34 973.52,-47.04 970.22,-37.95"/>
<polygon fill="green" stroke="green" stroke-width="0.28" points="973.56,-36.91 966.86,-28.7 966.98,-39.29 973.56,-36.91"/>
</g>
<!-- 10&#45;&gt;3 -->
<g id="edge93" class="edge">
<title>10&#45;&gt;3</title>
<path fill="none" stroke="red" stroke-width="0.11" d="M971.5,-72C967.55,-69.57 963.22,-67.06 959.08,-64.99 919.79,-45.37 906.91,-47.45 867.08,-28.99 865.79,-28.4 864.48,-27.76 863.16,-27.11"/>
<polygon fill="red" stroke="red" stroke-width="0.11" points="865.13,-24.19 854.64,-22.67 861.89,-30.39 865.13,-24.19"/>
</g>
<!-- 10&#45;&gt;4 -->
<g id="edge94" class="edge">
<title>10&#45;&gt;4</title>
<path fill="none" stroke="green" stroke-width="0.27" d="M971.66,-71.66C967.71,-69.22 963.33,-66.8 959.08,-64.99 899.96,-39.82 878.69,-52.94 819.08,-28.99 817.93,-28.53 816.77,-28.02 815.61,-27.49"/>
<polygon fill="green" stroke="green" stroke-width="0.27" points="817.47,-24.51 806.98,-23 814.24,-30.72 817.47,-24.51"/>
</g>
<!-- 11&#45;&gt;0 -->
<g id="edge95" class="edge">
<title>11&#45;&gt;0</title>
<path fill="none" stroke="red" stroke-width="0.24" d="M1024.79,-71.82C1021.06,-69.44 1016.98,-67.01 1013.08,-64.99 979.46,-47.64 938.31,-32.17 913.15,-23.31"/>
<polygon fill="red" stroke="red" stroke-width="0.24" points="914.33,-20.01 903.73,-20.04 912.03,-26.63 914.33,-20.01"/>
</g>
<!-- 11&#45;&gt;1 -->
<g id="edge96" class="edge">
<title>11&#45;&gt;1</title>
<path fill="none" stroke="green" stroke-width="0.15" d="M1032.2,-65.99C1028.43,-57.36 1023.68,-46.54 1019.55,-37.12"/>
<polygon fill="green" stroke="green" stroke-width="0.15" points="1022.76,-35.73 1015.54,-27.97 1016.35,-38.54 1022.76,-35.73"/>
</g>
<!-- 11&#45;&gt;2 -->
<g id="edge97" class="edge">
<title>11&#45;&gt;2</title>
<path fill="none" stroke="red" stroke-width="0.11" d="M1026.01,-70.44C1013.27,-59.49 993.8,-42.76 979.69,-30.63"/>
<polygon fill="red" stroke="red" stroke-width="0.11" points="982.35,-28.3 972.48,-24.44 977.78,-33.61 982.35,-28.3"/>
</g>
<!-- 11&#45;&gt;3 -->
<g id="edge98" class="edge">
<title>11&#45;&gt;3</title>
<path fill="none" stroke="red" stroke-width="0.12" d="M1024.97,-71.44C1021.24,-69.06 1017.12,-66.73 1013.08,-64.99 951.68,-38.59 929.43,-53.06 867.08,-28.99 865.73,-28.47 864.35,-27.89 862.99,-27.27"/>
<polygon fill="red" stroke="red" stroke-width="0.12" points="864.75,-24.24 854.24,-22.86 861.6,-30.49 864.75,-24.24"/>
</g>
<!-- 11&#45;&gt;4 -->
<g id="edge99" class="edge">
<title>11&#45;&gt;4</title>
<path fill="none" stroke="green" stroke-width="0.17" d="M1025.04,-71.27C1021.3,-68.9 1017.17,-66.61 1013.08,-64.99 931.54,-32.72 901.52,-58.89 819.08,-28.99 817.91,-28.57 816.74,-28.1 815.57,-27.58"/>
<polygon fill="green" stroke="green" stroke-width="0.17" points="817.41,-24.59 806.92,-23.17 814.23,-30.83 817.41,-24.59"/>
</g>
<!-- 12&#45;&gt;0 -->
<g id="edge100" class="edge">
<title>12&#45;&gt;0</title>
<path fill="none" stroke="green" stroke-width="0.17" d="M1077.93,-71.53C1074.2,-69.15 1070.09,-66.79 1066.08,-64.99 1062.52,-63.39 960.65,-35.07 913.55,-22"/>
<polygon fill="green" stroke="green" stroke-width="0.17" points="914.7,-18.69 904.13,-19.39 912.83,-25.43 914.7,-18.69"/>
</g>
<!-- 12&#45;&gt;1 -->
<g id="edge101" class="edge">
<title>12&#45;&gt;1</title>
<path fill="none" stroke="red" stroke-width="0.12" d="M1078.54,-70.74C1064.87,-59.72 1043.68,-42.61 1028.49,-30.36"/>
<polygon fill="red" stroke="red" stroke-width="0.12" points="1030.74,-27.67 1020.76,-24.12 1026.34,-33.12 1030.74,-27.67"/>
</g>
<!-- 12&#45;&gt;2 -->
<g id="edge102" class="edge">
<title>12&#45;&gt;2</title>
<path fill="none" stroke="green" stroke-width="0.17" d="M1077.72,-71.94C1073.99,-69.56 1069.94,-67.1 1066.08,-64.99 1032.2,-46.53 1021.63,-46.17 987.08,-28.99 985.81,-28.36 984.51,-27.7 983.2,-27.03"/>
<polygon fill="green" stroke="green" stroke-width="0.17" points="985.18,-24.12 974.71,-22.53 981.91,-30.3 985.18,-24.12"/>
</g>
<!-- 12&#45;&gt;3 -->
<g id="edge103" class="edge">
<title>12&#45;&gt;3</title>
<path fill="none" stroke="green" stroke-width="0.3" d="M1078.04,-71.26C1074.31,-68.89 1070.17,-66.6 1066.08,-64.99 982.43,-32.1 951.9,-58.71 867.08,-28.99 865.71,-28.51 864.33,-27.97 862.95,-27.37"/>
<polygon fill="green" stroke="green" stroke-width="0.3" points="864.7,-24.33 854.18,-23.03 861.59,-30.6 864.7,-24.33"/>
</g>
<!-- 12&#45;&gt;4 -->
<g id="edge104" class="edge">
<title>12&#45;&gt;4</title>
<path fill="none" stroke="green" stroke-width="0.35" d="M1078.08,-71.16C1074.34,-68.79 1070.2,-66.53 1066.08,-64.99 962.15,-26.17 924.08,-64.78 819.08,-28.99 817.91,-28.59 816.73,-28.14 815.55,-27.64"/>
<polygon fill="green" stroke="green" stroke-width="0.35" points="817.39,-24.64 806.88,-23.27 814.24,-30.89 817.39,-24.64"/>
</g>
</g>
</svg>
